<svg xmlns="http://www.w3.org/2000/svg" width="173.312" height="40.641" viewBox="0 0 173.312 40.641"><g id="Group_3920" data-name="Group 3920" transform="translate(0 0)"><g id="Group_14" data-name="Group 14" transform="translate(0 11.053)"><path id="Path_28" data-name="Path 28" d="M184.4,262.465c.148.008.295.022.441.022,2.962,0,5.923.008,8.886-.007.358,0,.453.1.448.451q-.03,2.322,0,4.645c0,.349-.083.458-.446.456-2.962-.015-5.923-.009-8.885-.009-.148,0-.295.012-.443.02a.7.7,0,0,0-.04.394q0,2.6,0,5.206c0,.557-.063.5.486.5q4.541,0,9.081,0c.137,0,.3-.077.413.065v5.519c-.088.132-.224.067-.333.067q-7.518.006-15.034,0c-.1,0-.216.03-.312-.046q0-14.151,0-28.3a.817.817,0,0,1,.4-.035q7.456,0,14.911,0c.124,0,.271-.067.374.067q0,2.76,0,5.519c-.117.143-.276.066-.412.066q-4.564.007-9.125,0c-.441,0-.443,0-.443.428q0,2.283,0,4.563A.7.7,0,0,0,184.4,262.465Z" transform="translate(-34.252 -250.821)" fill="#040506"></path><path id="Path_29" data-name="Path 29" d="M164.831,251.491a23.727,23.727,0,0,0,.625,2.337c.863,3.11,1.743,6.215,2.62,9.322q1.1,3.894,2.2,7.787c.024.085.007.223.191.271.121-.411.245-.819.361-1.231q.414-1.471.821-2.947c.3-1.075.586-2.155.886-3.23.261-.931.54-1.856.8-2.788.252-.9.487-1.8.74-2.7.26-.93.537-1.856.8-2.786.306-1.089.6-2.181.9-3.271.072-.261.152-.521.228-.781.107-.086.232-.047.349-.047q2.719,0,5.436,0c.122,0,.306-.109.37.113-.489,1.661-.983,3.32-1.465,4.983q-2.111,7.3-4.211,14.6-1.231,4.267-2.459,8.534a1.039,1.039,0,0,1-.047.109.479.479,0,0,1-.313.042q-3.314,0-6.629,0c-.107,0-.245.071-.323-.076q-.362-1.294-.725-2.589t-.732-2.567c-.239-.824-.486-1.647-.722-2.473-.252-.88-.495-1.763-.747-2.643-.232-.813-.479-1.624-.71-2.437-.3-1.057-.591-2.115-.889-3.172s-.6-2.106-.9-3.159c-.226-.791-.458-1.58-.684-2.372q-.505-1.764-1.008-3.529-.453-1.583-.913-3.166c-.05-.317.2-.193.318-.194,1.011-.011,2.02-.006,3.031-.006.808,0,1.616,0,2.423,0C164.581,251.427,164.726,251.361,164.831,251.491Z" transform="translate(-39.114 -250.823)" fill="#040506"></path><path id="Path_30" data-name="Path 30" d="M108.7,251.459q.865,3.09,1.732,6.182,1.846,6.587,3.7,13.172c.032.113.012.276.179.372a5.609,5.609,0,0,0,.467-1.445c.338-1.148.658-2.3.979-3.454.3-1.075.582-2.155.883-3.23.261-.93.545-1.855.806-2.785.3-1.088.591-2.181.9-3.27.26-.93.538-1.855.8-2.785.254-.9.5-1.792.747-2.687a.491.491,0,0,1,.06-.1c1.945-.009,3.889,0,5.834,0,.1,0,.216-.045.3.06-.344,1.136-.7,2.27-1.031,3.409q-1.059,3.637-2.1,7.277-1.507,5.244-3.01,10.489c-.668,2.313-1.345,4.623-2.015,6.934a.684.684,0,0,0-.009.16c-.075.085-.175.055-.265.055q-3.368,0-6.736,0c-.092,0-.19.024-.27-.046-.377-1.318-.75-2.636-1.131-3.951-.306-1.054-.627-2.1-.931-3.158-.257-.9-.487-1.8-.755-2.693q-.74-2.477-1.44-4.966c-.5-1.783-1.025-3.562-1.508-5.351-.385-1.425-.84-2.829-1.246-4.247-.373-1.308-.721-2.622-1.079-3.933a.444.444,0,0,1,.274-.04h5.6A.457.457,0,0,1,108.7,251.459Z" transform="translate(-52.771 -250.82)" fill="#040506"></path><path id="Path_31" data-name="Path 31" d="M144.774,279.748c0-.337.009-.674.009-1.01V251.921c0-.148-.006-.3-.01-.444.117-.1.257-.053.387-.053q2.426-.006,4.851,0c.456,0,.458,0,.458.454q0,10.875,0,21.748a.862.862,0,0,0,.044.475l0,0a.751.751,0,0,0,.434.042q5.837.006,11.677,0c.455,0,.456,0,.456.456q0,2.383,0,4.768a.729.729,0,0,1-.04.4h0a.842.842,0,0,1-.436.038q-8.7,0-17.41,0C145.058,279.8,144.9,279.864,144.774,279.748Z" transform="translate(-42.497 -250.82)" fill="#040506"></path><g id="Group_11" data-name="Group 11" transform="translate(26.488 0.596)"><path id="Path_32" data-name="Path 32" d="M105.547,263.673a22.408,22.408,0,0,0-.75-4.517,10.037,10.037,0,0,0-5.085-6.4,13.185,13.185,0,0,0-5.262-1.312,1.172,1.172,0,0,0-.4-.024H84.263c-.446,0-.446,0-.446.465V279.34c0,.465,0,.466.446.466h9.381a1.182,1.182,0,0,0,.4-.025,14.962,14.962,0,0,0,3.837-.583,9.9,9.9,0,0,0,6.568-6.107,19.839,19.839,0,0,0,1.094-5.537c.062-.169-.014-.354.06-.521V264.12C105.54,263.977,105.6,263.817,105.547,263.673ZM99.807,265.8a16.633,16.633,0,0,1-.567,4.748,4.635,4.635,0,0,1-4.261,3.481c-1.733.2-3.471.094-5.208.134-.316.007-.261-.18-.261-.363v-8.2c0-2.722,0-5.443-.007-8.165,0-.313.073-.4.393-.4,1.481.041,2.964-.05,4.444.08a7.858,7.858,0,0,1,2.16.453,4.76,4.76,0,0,1,2.887,3.624A18.385,18.385,0,0,1,99.807,265.8Z" transform="translate(-83.817 -251.416)" fill="#040506"></path></g><g id="Group_12" data-name="Group 12" transform="translate(74.292)"><path id="Path_33" data-name="Path 33" d="M145.546,264.721c-.078-.2.006-.41-.06-.608-.072-.689-.142-1.376-.25-2.061a15.456,15.456,0,0,0-2.12-5.865,10.589,10.589,0,0,0-8.16-5.192c-.143-.055-.3.006-.445-.058H133.3c-.142.066-.3,0-.443.058a10.313,10.313,0,0,0-6.05,2.561,11.25,11.25,0,0,0-2.49,3.2,16.985,16.985,0,0,0-1.989,7.2c-.062.172.014.359-.061.53V266.9c.072.169,0,.354.058.523.055.367.052.736.093,1.105a17.044,17.044,0,0,0,1.508,5.406,11.515,11.515,0,0,0,3.967,4.789,9.944,9.944,0,0,0,5.2,1.738c.254.067.52-.026.772.06q.035-.058.071,0c.252-.086.518.007.772-.06a11.3,11.3,0,0,0,3.325-.782,11.022,11.022,0,0,0,5.412-5,17.464,17.464,0,0,0,2.038-7.418c.062-.2-.021-.4.056-.6Zm-6.474,6.03a5.307,5.307,0,0,1-3.8,3.47,5.451,5.451,0,0,1-6.539-3.454,13.312,13.312,0,0,1-.864-5.127,13.113,13.113,0,0,1,.936-5.165,5.511,5.511,0,0,1,8.576-2.2,6.514,6.514,0,0,1,2.135,3.706A14.84,14.84,0,0,1,139.072,270.751Z" transform="translate(-122.266 -250.936)" fill="#040506"></path></g><g id="Group_13" data-name="Group 13" transform="translate(0 0.598)"><path id="Path_34" data-name="Path 34" d="M85.989,279.679q-.813-2.833-1.623-5.668-1.261-4.4-2.523-8.79-1.593-5.591-3.174-11.189c-.242-.853-.525-1.693-.715-2.561a.235.235,0,0,0-.187-.051c-2.361,0-4.723-.012-7.084.009-.148.088-.065.246-.106.368-.515,1.563-.945,3.153-1.4,4.735-.485,1.68-.971,3.361-1.437,5.047-.5,1.811-1.042,3.612-1.567,5.417-.271.931-.548,1.86-.819,2.792-.281.971-.557,1.946-.837,2.917-.257.894-.518,1.787-.777,2.681-.28.969-.572,1.933-.834,2.906a10.877,10.877,0,0,0-.393,1.468.309.309,0,0,0,.23.046q2.842,0,5.683,0c.078,0,.162.016.229-.047.375-1.435.755-2.868,1.2-4.284a.418.418,0,0,1,.236-.035h8.244a.418.418,0,0,1,.274.041,13.976,13.976,0,0,1,.495,1.609c.282.893.476,1.812.8,2.692a.452.452,0,0,0,.158.025q2.861,0,5.721,0c.088,0,.191.037.259-.062C86.022,279.721,86,279.7,85.989,279.679Zm-9.183-9.733c-.862-.009-1.724,0-2.586,0s-1.725-.01-2.586.006c-.256,0-.287-.075-.226-.293q1.315-4.7,2.628-9.406c.021-.075-.01-.209.128-.22.16-.014.145.119.174.219q1.33,4.718,2.671,9.434C77.077,269.925,77.018,269.947,76.806,269.946Z" transform="translate(-62.513 -251.417)" fill="#040506"></path></g></g><g id="Group_15" data-name="Group 15" transform="translate(163.888)"><path id="Path_35" data-name="Path 35" d="M202.053,243.2a4.618,4.618,0,0,0-6.728.681,4.438,4.438,0,0,0-.971,2.663,2.324,2.324,0,0,0,0,.725,3.884,3.884,0,0,0,.28,1.339,4.532,4.532,0,0,0,3.619,3.08,4.485,4.485,0,0,0,4.1-1.393A4.853,4.853,0,0,0,202.053,243.2Zm-3.008,7.641a3.961,3.961,0,1,1,3.919-3.964A3.94,3.94,0,0,1,199.045,250.839Z" transform="translate(-194.327 -242.046)" fill="#050606"></path></g><g id="Group_16" data-name="Group 16" transform="translate(166.837 2.065)"><path id="Path_36" data-name="Path 36" d="M200.358,247.577a1.046,1.046,0,0,0-.639-1.083,1.624,1.624,0,0,0,.466-1.86,1.451,1.451,0,0,0-1.467-.919c-.564-.006-1.13.009-1.7-.007-.232-.006-.324.035-.322.3q.021,2.4,0,4.8c0,.3.118.334.352.31.205-.021.471.1.45-.3-.03-.551,0-1.1-.01-1.655,0-.153.012-.256.21-.249.417.016.834,0,1.251.019a.588.588,0,0,1,.618.609c.016.281.007.564.015.847.022.787-.144.775.812.7A8.589,8.589,0,0,1,200.358,247.577ZM198.68,246.2c-.295.014-.592-.015-.885.009-.265.022-.326-.088-.3-.323.016-.187,0-.376,0-.563,0-.833,0-.833.828-.833.121,0,.242,0,.363,0,.587.025.852.282.855.831C199.545,245.9,199.281,246.174,198.68,246.2Z" transform="translate(-196.699 -243.708)" fill="#050606"></path></g></g></svg>