<svg xmlns="http://www.w3.org/2000/svg" width="845.982" height="299.117" viewBox="0 0 845.982 299.117">
  <g id="Group_4071" data-name="Group 4071" transform="translate(-2.006 -131.622)">
    <path id="Path_5632" data-name="Path 5632" d="M-235.89-21.963l63.641-80.5h-62.036v-22.047h94.356v20.865l-64.466,81.685h64.635V0h-96.13Zm206.536-80.5H-95.243v26.44H-34.76V-54.4H-95.243v32.015h68.93V0h-94.356V-124.513h91.315Zm49.332-.422v33.451h28q8.343,0,12.515-2.027,7.381-3.548,7.381-14.022,0-11.319-7.141-15.205-4.011-2.2-12.033-2.2Zm34.13-21.625q12.767.253,19.646,3.21a30.734,30.734,0,0,1,11.655,8.7,38.731,38.731,0,0,1,6.261,10.475,34.91,34.91,0,0,1,2.307,13.093A37.3,37.3,0,0,1,89.5-71.591q-4.477,8.574-14.783,12.122,8.616,3.463,12.206,9.841t3.59,19.471v8.363q0,8.532.686,11.573a10.391,10.391,0,0,0,4.8,7.1V0H67.282Q66.1-4.139,65.593-6.673a61.313,61.313,0,0,1-1.1-10.728l-.169-11.573q-.16-11.911-4.115-15.881t-14.822-3.97H19.978V0H-5.448V-124.513ZM173.971-18.584q15.458,0,24.539-11.4t9.081-32.437q0-20.949-9.081-32.4t-24.539-11.446q-15.458,0-24.666,11.4T140.1-62.425q0,21.034,9.208,32.438T173.971-18.584Zm59.638-43.841q0,33.536-18.837,51.359-14.107,14.529-40.8,14.529t-40.8-14.529Q114.249-28.89,114.249-62.425q0-34.211,18.922-51.359,14.107-14.529,40.8-14.529t40.8,14.529Q233.609-96.637,233.609-62.425Z" transform="translate(614.379 397.256)" fill="#f4bd06"/>
    <path id="Path_5633" data-name="Path 5633" d="M-137.94-119.79a32.737,32.737,0,0,0-3.795,4.62,19.708,19.708,0,0,1-4.455,4.62,2.611,2.611,0,0,1,.33,1.65,1.345,1.345,0,0,1-.99-.33,17.781,17.781,0,0,1-1.485,5.775,47.967,47.967,0,0,1-2.805,5.115v-.33q-.33,0-.33.165t.33.165q0,.66-.495.66t-.5.66a.292.292,0,0,0,.33.33.292.292,0,0,1,.33.33q-.99,1.98-1.815,3.465a3.489,3.489,0,0,0-.165,3.135q-1.32-.33-1.65.825t.66,1.485q0,.33-.99.33a2.194,2.194,0,0,0,.165,1.155,3.819,3.819,0,0,1,.495.825q-.66.66-.66.33t-.66-.33a3.672,3.672,0,0,1-.66,3.135q-.99,1.155-.33,3.795-1.65.99-1.815,4.125t-.165,5.115a.529.529,0,0,1-.495-.33.529.529,0,0,0-.5-.33,4.1,4.1,0,0,1-.165,2.64,1.307,1.307,0,0,0,.165,1.65,8.387,8.387,0,0,0-1.485,3.96,29.526,29.526,0,0,1-.825,4.62q0,.66.99.66a49.667,49.667,0,0,0-2.145,13.035A71.145,71.145,0,0,0-162.03-28.05a44.688,44.688,0,0,0,11.88-9.735,90.6,90.6,0,0,0,8.91-12.375q3.96-6.6,7.755-13.53t8.085-13.53a2.569,2.569,0,0,1,.99-2.31,2.033,2.033,0,0,1-.33,1.155q-.33.5.66.825a18.7,18.7,0,0,1,1.485-2.97,14.5,14.5,0,0,0,1.485-4.29,43.357,43.357,0,0,0,4.125-7.425,33.459,33.459,0,0,0,2.475-8.415q1.98-4.95,3.96-10.23a37.037,37.037,0,0,0,2.31-10.89,5.171,5.171,0,0,1,1.32-.99,2.159,2.159,0,0,0,.99-.99,3.573,3.573,0,0,0,2.97-.66,16.347,16.347,0,0,1,5.115,2.31,12.47,12.47,0,0,0,5.775,1.98,4.207,4.207,0,0,0,1.98,1.98q.99.33,1.32,1.98,0,.66.165.33t.825-.33a2.727,2.727,0,0,1,.165,2.475,4.945,4.945,0,0,0-.165,2.805,2.585,2.585,0,0,0-1.815,2.97q.165,2.31-1.485,2.64.66,1.65,0,2.145t0,2.145q-.99-.33-1.32.825T-91.74-99a4.4,4.4,0,0,0-.99,1.485q-.33.825.66,1.485a1.119,1.119,0,0,0-.33.825q0,.5-.66.165.99,2.31-.33,3.63a.292.292,0,0,0-.33.33.292.292,0,0,1-.33.33.583.583,0,0,0,.66.66q0,.99-.33.495t-.66.165q0,.66.825.33t.165.66q-1.65-.33-1.485.99a9.322,9.322,0,0,1-.165,2.97q-.66,2.31-1.485,5.94a28.9,28.9,0,0,0-.825,6.27q2.31-2.31,4.455-4.785A25.745,25.745,0,0,1-88.44-81.18v.66a.292.292,0,0,0,.33-.33.292.292,0,0,0-.33-.33,3.736,3.736,0,0,0,1.32-1.32,2.569,2.569,0,0,1,2.31-.99q-.66-.66-.165-.825t.495-1.155h.33q-.33.99.165.495t-.165-.495q.33-.99.66-.5t.66-.5a34.218,34.218,0,0,0,2.8-2.475A34.221,34.221,0,0,1-77.22-91.41v.33q-.66.33-.33.33a.292.292,0,0,0,.33-.33q.33,0,.33-.165t-.33-.165a4.468,4.468,0,0,1,2.64-2.805,3.506,3.506,0,0,0,2.31-2.475h1.815q1.155,0,.5-.99.33,0,.33-.66.99.33.99-1.65,1.32.33,1.65-.33a3.736,3.736,0,0,1,1.32-1.32q0,.66.33.66.66-.66-.33-.66a7.08,7.08,0,0,1,1.32-1.65q.33,0,.33.66.66,0,.66-.99a1.939,1.939,0,0,1,.99,1.65q-.66.66-.66.33t-.66-.33q.33.99,0,1.32A2.611,2.611,0,0,0-64.02-99q-.66,0-.66-.99-.66.66-.825.165t-.825.165a1.167,1.167,0,0,0,1.32,1.32,12.253,12.253,0,0,1-2.475,1.485A4.034,4.034,0,0,0-69.3-95.37q.33.66.5.165t.5.165a4.579,4.579,0,0,0-3.465,2.97,3.108,3.108,0,0,1-3.135,2.31.292.292,0,0,0-.33-.33v-.33q-.33,0-.33.165t.33.165a.292.292,0,0,0,.33.33v.66a.672.672,0,0,0-.5.165.672.672,0,0,1-.495.165,1.9,1.9,0,0,0,1.32.66v.33q.33,0,.33-.165t-.33-.165v-.66q.66.33.825-.165t.165.5a3.763,3.763,0,0,1,1.32-1.98,3.763,3.763,0,0,0,1.32-1.98q.33,0,.33.165t.33.165q-.66.66,0,.66.33,0,.5-.5t-.5-.165q0-.33.165-.33t.165-.66q.66-.33.495.33a.8.8,0,0,0,.5.99q-.66.33-.33.33a.292.292,0,0,0,.33-.33,1.057,1.057,0,0,0,.66-.99.583.583,0,0,0-.66-.66q.66,0,.825-.825t.825-.825q0,.99.33.99.99.33.99-.495t.99-.825A18.317,18.317,0,0,1-66.165-92.9,7.672,7.672,0,0,1-67.32-91.41h-.66v-.33q.99-.33.33-.99-.33,0-.33.99a.292.292,0,0,0-.33.33q-.33,0-.33.165t.33.165q0,.33.99.33v1.32q-.99,0-.5-.165t.165-.825q-.33,0-.33.165t-.66.165q0,.33.165.33t.165.66q-.66,0-.5-.5t-.5-.495q-.66.66,0,.825t0,.825q-.66-.66-.66-.5t-.66.5q0-.66.165-.66t.165-.66a.529.529,0,0,0-.5.33.529.529,0,0,1-.495.33.583.583,0,0,0,.66.66.672.672,0,0,1-.165.495.672.672,0,0,0-.165.5q-.66.33-.99-.165t-.66.165h-.66q.33,1.32-.495,1.815t-.165,1.155q-.66-.33-.66.33v1.32q-.66-.66-.495,0t-.5.66a.292.292,0,0,0-.33-.33.292.292,0,0,1-.33-.33q-.66,0-.495.5t-.165.495h0q0,.33-.66.33,0-.33.99.66,0,.33-.99.33h0q-.33.99-.66,0t-.66,0h-.33q0-.66.33-.66t-.33-.66h0a1.786,1.786,0,0,1-.66.825q-.33.165-.33.825t.165.33a.529.529,0,0,1,.5-.33v.99a3.819,3.819,0,0,0-.825.5,3.818,3.818,0,0,1-.825.495q0,.99.495.33t.5,0q0,1.32-.825.825t-1.155.165q0-.33-.165-.33t-.165.33q-.33,0-.33.165t.33.165v1.32q-.99-.33-1.32,0h0q0,.33.66.33a1.786,1.786,0,0,1-.66.825,2.586,2.586,0,0,0-.66.5q-.33,0-.33-.66-.66,0-.66.495t-.66.165q0,.66.5.5t.165.495h-.66q0-.33-.66-.33,0,.99.33.99l-1.485,1.485q-.825.825-1.485.495a2.59,2.59,0,0,1-1.32,1.815q-.99.5-.66,2.145-.66-.66-.66,0a1.345,1.345,0,0,1-.33.99,1.911,1.911,0,0,1-1.32-.33v.99q-.66,0-.66.33a.762.762,0,0,0-.825.5q-.165.495-.825.165.33,1.65-.825,1.98t-.495,1.65q-1.98-.66-2.475.825a26.086,26.086,0,0,0-.825,3.135q1.32,0,0,.99v-.33q-.33,0-.33.165t.33.165v.33a11.779,11.779,0,0,0-.99,2.97,13.9,13.9,0,0,0-.33,2.31,1.939,1.939,0,0,1-1.65.99q.66,1.32-.165,1.98a1.385,1.385,0,0,0-.5,1.65q.99,0,.99-1.32a6.588,6.588,0,0,1,0,4.125,45.752,45.752,0,0,0-1.32,4.455.529.529,0,0,1-.5-.33.529.529,0,0,0-.5-.33q-.66.66.165,1.485a1.3,1.3,0,0,1,.165,1.815q-.66,0-.5-.5t-.165-.495a6.069,6.069,0,0,0-.5,1.815q-.165,1.155.5,1.155v.66q-1.65.33-.99,2.64.33,0,.33-.66a7.934,7.934,0,0,1-.165,4.785,27.428,27.428,0,0,0-1.155,6.105h-.99a65.256,65.256,0,0,0-2.97,13.035,52.472,52.472,0,0,1-3.3,13.035,1.59,1.59,0,0,1,0,2.31,2.872,2.872,0,0,0-.33,2.97,7.671,7.671,0,0,0-1.155,1.485,7.942,7.942,0,0,0-.825,2.145q.66,0,.66-.99A4.092,4.092,0,0,1-116.655,17q-.165,1.485-1.155,1.155a21.631,21.631,0,0,1-1.485,8.25,35.309,35.309,0,0,0-2.145,7.59,2.569,2.569,0,0,1-.825,2.64q-1.155.99-.495,3.3-.66,0-.66.33-.66.33-.825,2.31t-.825.99q-.66.33,0,1.32a21.135,21.135,0,0,1-4.29,11.88q-.66.33-.495-.66t.825-.66q-.66-.66-.66-.99a5.171,5.171,0,0,1-1.32.99q-.66.33-.99,2.31,1.65.33-.33,1.32,0,.66.825.33t.165.66a10.114,10.114,0,0,0,.99-1.815,4.4,4.4,0,0,1,.99-1.485q.66.66,0,1.65a1.65,1.65,0,0,0,0,1.98q-.33,0-.33.165t-.66.165a9.18,9.18,0,0,1-.825,5.115q-1.155,2.475-2.145,5.115-.66,1.98-1.32,3.63,0,.33-.495.165t-.5.165a2.986,2.986,0,0,0-.495,2.145,1.7,1.7,0,0,1-1.155,1.815,77.939,77.939,0,0,1-3.63,9.075,31.232,31.232,0,0,1-4.95,7.425q0,.66.165.66t.165.66q-2.31,3.63-4.62,6.93a44.286,44.286,0,0,1-4.95,5.94v-.99a8,8,0,0,0-.99,1.155,8,8,0,0,1-.99,1.155q0,.66.5.165a1.351,1.351,0,0,0,.495-.825q.66.99-.33,1.485a6.281,6.281,0,0,0-1.65,1.155q-.33,0-.33-.66h0a3.76,3.76,0,0,0-1.485.825,4.4,4.4,0,0,1-1.155.825q0,.99.33.99a7.37,7.37,0,0,1-4.455,2.97,7.181,7.181,0,0,0-4.125,2.31q-3.63.33-6.105.66t-6.1.66q.33-.66-.66-.825t-.99.5q-.66.33-.33-.66t-.33-.66q0-.33-.165-.33t-.165.33q-.66-.66-3.135-.66h-3.135q-.66-.33-.165-.66t.495-.66a1.786,1.786,0,0,0-1.65-.5,2.665,2.665,0,0,1-1.65-.165,17.923,17.923,0,0,0-3.465-5.61,32.842,32.842,0,0,1-3.795-4.95q-.99.66-.165,1.32t.495,1.32a15.773,15.773,0,0,1-4.29-5.94q.99.33.825-.165a3.656,3.656,0,0,1-.165-1.155q.33,0,.99.66a1.906,1.906,0,0,0,0-2.145,3.125,3.125,0,0,1,0-2.805q.99,0,.825,1.155a2.018,2.018,0,0,0,.495,1.815,14.3,14.3,0,0,0-.165-6.435,34.9,34.9,0,0,1-.825-7.425q.66.33.66-.66t-.66-.66q-.66.33-.165.5t.165.825q-.66,0-.33,1.155t-.33,1.155q0-.66-.495-.5t-.165-.495q-.66,0-.66,2.31-1.32-.33-1.485-1.32a2.665,2.665,0,0,1,.165-1.65q1.65.99.66-1.32a4.183,4.183,0,0,1,0-3.96h.66a.825.825,0,0,1,0-1.32,50.816,50.816,0,0,1,3.3-16.335q2.97-7.755,5.94-14.355,0-.66-.165-.66t-.165-.66a25.924,25.924,0,0,0,2.475-4.95,7.882,7.882,0,0,1,3.465-3.96q0-.66-.165-.66t-.165-.66q3.63-6.6,7.755-13.695t9.075-14.025a.672.672,0,0,1,.495.165.672.672,0,0,0,.5.165q.33-.66,0-.825t-.33-.825Q-168.96,4.29-165-.99t7.92-10.23a7.82,7.82,0,0,0-2.8-.66,2.453,2.453,0,0,1-1.815-.66,14.783,14.783,0,0,1-9.24-1.815,24.749,24.749,0,0,1-7.59-6.105q.66-1.32-.825-2.64t-.165-2.31a1.891,1.891,0,0,1-.99-2.31,2.042,2.042,0,0,0-.66-2.31,131.677,131.677,0,0,1,.165-19.8q.825-9.57,2.475-19.14,1.32-1.32.825-2.475t.825-1.815a3.585,3.585,0,0,1,.66-4.125,10.154,10.154,0,0,0,2.31-4.455q-.33-1.32-.825-1.485t.165-1.485q.66,0,.66.33-.66.33-.33.33a.292.292,0,0,0,.33-.33q.66.33.66-.66t-.66-.66q.99-.33,1.65-2.64a8.244,8.244,0,0,1,.495-6.27,24.464,24.464,0,0,0,2.145-6.6q.66,0,.33.5a1.6,1.6,0,0,0-.33.825,5.286,5.286,0,0,0,2.64-4.29,18.569,18.569,0,0,1,1.32-5.28.583.583,0,0,0-.66.66.652.652,0,0,1-.33-.99,3.84,3.84,0,0,1,.66-.99q.33,0,.33.99.99-1.65.66-2.475a3.562,3.562,0,0,1,.33-2.475h.33q1.32.66,2.8-3.3t2.475-5.94a.292.292,0,0,0,.33-.33q.33,0,.33-.66h.66a.583.583,0,0,0-.66-.66,21.505,21.505,0,0,0,3.3-2.475,5.312,5.312,0,0,1,3.63-1.485,6.588,6.588,0,0,1,4.125,0,10.156,10.156,0,0,1,3.3,1.98q1.485,1.32,2.97,2.805a16.308,16.308,0,0,0,3.135,2.475q-.33.99-.165,1.155A3.33,3.33,0,0,1-137.94-119.79Zm70.62,26.73q.33.99.33,0T-67.32-93.06Zm-5.61.33q.33.66.495-.165T-72.93-92.73Zm3.63,1.98Zm-2.64,2.31q-.66,0-.66.33Q-71.94-88.11-71.94-88.44Zm-4.29.33q-.66,0-.66.33Q-76.23-87.78-76.23-88.11Zm-1.98.66q.33.66.495-.165T-78.21-87.45Zm1.65,1.98q-.33-.66.165-.99t-.165-.66a3.839,3.839,0,0,1-.66.99Q-77.55-85.8-76.56-85.47Zm1.98-1.32q-1.32,0-1.32.33a1.119,1.119,0,0,0,.825.33Q-74.58-86.13-74.58-86.79Zm-1.65.99q.33.99.33,0T-76.23-85.8Zm-4.29.33q.33.99.33,0T-80.52-85.47Zm1.32,0q-.66,1.32,0,1.155T-79.2-85.47Zm-3.3,4.29q-.99.66-.825-.165t-.5-.825q-.33.66-.165.825a2.194,2.194,0,0,1,.165,1.155q.66.33,1.32-.99h.33q.33.66.33.33a.292.292,0,0,0-.33-.33,2.586,2.586,0,0,0,.495-.66q.165-.33.825-.33A1.305,1.305,0,0,1-80.685-83a.672.672,0,0,0,.165-.5q-.33,0-.33-.165t-.33-.165a1.583,1.583,0,0,1-.5,1.155A3.76,3.76,0,0,0-82.5-81.18Zm2.64-.66q-.66,0-.66.33Q-79.86-81.51-79.86-81.84Zm-4.95,2.31q.33.99.33,0T-84.81-79.53Zm-.66.33q.33.99.33,0T-85.47-79.2Zm-4.29.33q.33.99.33,0T-89.76-78.87Zm2.97,1.32q.33.66.5-.165T-86.79-77.55Zm-1.32.66a.292.292,0,0,0-.33-.33.292.292,0,0,0-.33.33.529.529,0,0,1,.495.33Q-88.11-76.23-88.11-76.89Zm3.63.33q-.66,0-.165.5t.165-.5Zm-4.95,1.98q.66,0,.66-.5t.66-.825q-.66-.66-.66-.165t-.66-.165Zm-.66,0a.292.292,0,0,0-.33.33q-.66.33-.33.33a.292.292,0,0,0,.33-.33A.292.292,0,0,0-90.09-74.58Zm1.32.99q-.66.33-.33.33a.292.292,0,0,0,.33-.33q1.32.33.495-.5T-88.77-73.59Zm-9.24.66a.292.292,0,0,0-.33-.33.292.292,0,0,0-.33.33.529.529,0,0,1,.495.33Q-98.01-72.27-98.01-72.93Zm6.27,0a1.057,1.057,0,0,0-.99.66.652.652,0,0,0,.33.99q0-.33.66-.33Zm-2.64.99q.33.99.33,0T-94.38-71.94Zm.99,0q.33.99.33,0T-93.39-71.94Zm-.33,1.32h.66v-.66h-.66Zm.33,1.65q.33.99.33,0T-93.39-68.97Zm-4.29,2.64a.292.292,0,0,0-.33-.33.292.292,0,0,0-.33.33.529.529,0,0,1,.5.33Q-97.68-65.67-97.68-66.33Zm4.62.66q.33.99.33,0T-93.06-65.67Zm-7.26,1.65q.33.66.5-.165T-100.32-64.02Zm-.33,2.31q.33.66.5-.165T-100.65-61.71Zm1.98.66q0-.33-.5-.33t-.495.33q-.33.66.495.66T-98.67-61.05Zm-3.96,9.57q.33.99.33,0T-102.63-51.48Zm.33.99q-1.65-.33-1.155.165T-102.3-50.49Zm-2.64,3.96a.292.292,0,0,1,.33-.33.583.583,0,0,0-.66-.66Q-105.27-46.53-104.94-46.53Zm-1.65,5.61q.33.66.5-.165T-106.59-40.92Zm-.33,2.64q.33.99.33,0T-106.92-38.28Zm-1.32,4.95q.66.66.825.165t-.5-.825q0,.33-.165.33T-108.24-33.33Zm0,2.31q-.33,1.65,0,.33T-108.24-31.02Zm-.66,5.61a1.6,1.6,0,0,1,.33-.825q.33-.495-.33-.495a1.6,1.6,0,0,1-.33.825Q-109.56-25.41-108.9-25.41Zm.99,0q.33.66.5-.165T-107.91-25.41Zm-22.77,11.22A4.1,4.1,0,0,0-132-11.22q-2.97,3.3-5.775,6.435A35.118,35.118,0,0,0-142.89,2.97a16.485,16.485,0,0,0-5.94,6.93,17.415,17.415,0,0,1-5.61,6.93,5.844,5.844,0,0,1-1.155,2.64,5.844,5.844,0,0,0-1.155,2.64,21.955,21.955,0,0,0-5.445,7.425,25.559,25.559,0,0,1-5.445,7.755,16,16,0,0,1-5.61,9.57q.33,2.64-.99,3.63t-1.32,3.63a6.065,6.065,0,0,0-2.97,3.96,9,9,0,0,1-2.31,4.29,17.37,17.37,0,0,1-2.805,9.4A17.887,17.887,0,0,0-186.12,82.5a36.3,36.3,0,0,0-1.155,15.675A39.246,39.246,0,0,0-182.49,112.2q8.58-4.29,12.705-11.22t8.745-14.52a52.777,52.777,0,0,1,3.795-7.92,27.265,27.265,0,0,0,3.135-8.58,19.675,19.675,0,0,0,3.465-7.59,43.807,43.807,0,0,1,2.475-7.92,14.649,14.649,0,0,1,1.32-2.64,14.648,14.648,0,0,0,1.32-2.64q.99-3.63,1.815-6.93a70.089,70.089,0,0,1,2.145-6.93q.99-2.97,1.98-6.93t1.65-7.26q1.98-9.24,4.29-17.49a178.976,178.976,0,0,0,3.96-17.82ZM-153.45-3.63q.33.99.33,0T-153.45-3.63Zm-3.63,4.95a.292.292,0,0,1,.33-.33.583.583,0,0,0-.66-.66Q-157.41,1.32-157.08,1.32Zm40.92,0q.33.99.33,0T-116.16,1.32Zm-.99,1.65h.66V2.31h-.66Zm-48.18,5.28q-.99-.33-.495.165t.495-.165Zm-1.98,3.3q-.66,0-.66.33Q-167.31,11.88-167.31,11.55Zm.99,2.31a1.057,1.057,0,0,0,.99-.66.652.652,0,0,0-.33-.99q.33.66-.33.825T-166.32,13.86Zm-6.93-1.32q-.66,0-.66.33Q-173.25,12.87-173.25,12.54Zm2.31.66q-.66,0-.66.33Q-170.94,13.53-170.94,13.2Zm4.29,0q-.66,0-.66.33Q-166.65,13.53-166.65,13.2Zm-.66,2.64a1.6,1.6,0,0,1,.33-.825q.33-.5-.33-.495,0,.66-.66,0Q-167.97,15.84-167.31,15.84Zm12.21.33a.292.292,0,0,0-.33-.33.292.292,0,0,0-.33.33.529.529,0,0,1,.495.33Q-155.1,16.83-155.1,16.17Zm-13.2.66q.33.66.5-.165T-168.3,16.83Zm49.83-.33q-1.32,0-1.32.33a1.119,1.119,0,0,0,.825.33Q-118.47,17.16-118.47,16.5Zm-58.41,5.61h-.33q-.99.99,0,.99a.672.672,0,0,1,.165-.495.672.672,0,0,0,.165-.5h.66v-.66A.583.583,0,0,0-176.88,22.11Zm3.96-.33q-.66,0-.66.33Q-172.92,22.11-172.92,21.78Zm-3.3,2.64q.33.66.495-.165T-176.22,24.42Zm1.32,1.98q-.33,0-.33-.165t-.66-.165q-.66.66.165.825T-174.9,26.4Zm-1.65,1.98q0,.99.66.5t0-.825q0,.33-.66.33Zm-4.95.33q.66.99.495.165T-181.5,28.71Zm1.98.66q.33.99.33,0T-179.52,29.37Zm56.43.66q-.33,1.65,0,.33T-123.09,30.03Zm-49.5.99q-.66.33-.33.33a.292.292,0,0,0,.33-.33Zm-5.94.99q.33.99.33,0T-178.53,32.01Zm54.12.66q.33.99.33,0T-124.41,32.67Zm-55.11.33q.33.99.33,0T-179.52,33Zm2.31,0q.33.99.33,0T-177.21,33Zm-6.27,1.32q-.33-.66.165-.99t-.495-.33Q-183.81,34.32-183.48,34.32Zm58.74-.66q.33.99.33,0T-124.74,33.66Zm-57.09.33Zm1.65.33q.33.99.33,0T-180.18,34.32Zm-4.95,1.98a1.119,1.119,0,0,0,.33-.825q0-.5-.66-.495a1.119,1.119,0,0,0-.33.825Q-185.79,36.3-185.13,36.3Zm4.62-.66q-.66.33-.33.33a.292.292,0,0,0,.33-.33q.66.66.66,0T-180.51,35.64Zm1.65.99q-.66.33-.33.33a.292.292,0,0,0,.33-.33Zm53.79.66q.33.66.5-.165T-125.07,37.29Zm-57.09.66q.33.99.33,0T-182.16,37.95Zm.66,0q.33.66.495-.165T-181.5,37.95Zm-5.61,1.65h-.33q-.99.99,0,.99a.672.672,0,0,1,.165-.495.672.672,0,0,0,.165-.495h.33a1.119,1.119,0,0,0,.33-.825q0-.495-.66-.495Q-187.44,39.27-187.11,39.6Zm2.64.33a1.911,1.911,0,0,1-.33,1.32.762.762,0,0,0,.825-.495,3.25,3.25,0,0,1,.825-1.155q-.66,0-.66.165T-184.47,39.93Zm57.75,4.95q.33.66.33.33a.292.292,0,0,0-.33-.33,10.225,10.225,0,0,0,.66-4.29,6.716,6.716,0,0,0-1.98,4.95q.66.33.66-.165T-126.72,44.88Zm-62.04-1.32q.66-.33.66-.66t.66-.33q-.66-.66-.495-.825t-.495-.825q-.33.66-.66,1.485T-188.76,43.56Zm4.95-1.65q-.66.33-.33.33A.292.292,0,0,0-183.81,41.91Zm-1.32.33v.66q.66.66.825-.165t-.5-.825A.292.292,0,0,1-185.13,42.24Zm-1.65.99a.529.529,0,0,1,.33-.5q.33-.165-.33-.495a.529.529,0,0,1-.33.495Q-187.44,42.9-186.78,43.23Zm3.63.99Zm-1.98.66q-.66.33-.33.33a.292.292,0,0,0,.33-.33q.66,0,.165-.495T-185.13,44.88Zm-2.64,0Zm3.96.33q.33.99.33,0T-183.81,45.21Zm-6.6.33q.33.99.33,0T-190.41,45.54Zm-.66.99h-.33a2.092,2.092,0,0,0-.5.99q-.165.66.5.66a2.611,2.611,0,0,0,.33-1.65Zm64.02,0q.33.99.33,0T-127.05,46.53Zm-55.11.33q.33.99.33,0T-182.16,46.86Zm-7.26,3.3a1.114,1.114,0,0,0,1.485-.66q.5-.99.165-1.32a3.25,3.25,0,0,0-.825,1.155A1.5,1.5,0,0,1-189.42,50.16Zm-2.97-.33q0-.66.495-.66t.165-.66a.652.652,0,0,0-.99.33A.652.652,0,0,0-192.39,49.83Zm1.32-.33a.652.652,0,0,0,.99-.33q.33-.66-.33-.66a.529.529,0,0,1-.33.5A.529.529,0,0,0-191.07,49.5Zm-3.63,4.95q-.66.33-.33.33a.292.292,0,0,0,.33-.33,7.249,7.249,0,0,0,1.32-2.145,2.741,2.741,0,0,0,.33-2.145A18.291,18.291,0,0,0-194.7,54.45Zm65.01-3.63q.33.99.33,0T-129.69,50.82Zm-59.07.99q.33.99.33,0T-188.76,51.81Zm-1.32,1.65q-.33-.66.165-.99t-.165-.66Q-190.74,53.13-190.08,53.46Zm61.38-1.65h-.66a.292.292,0,0,0-.33.33q-.33.99.66.66T-128.7,51.81Zm-1.98,1.32q.33.99.33,0T-130.68,53.13Zm-60.72,3.3a1.345,1.345,0,0,1,.33-.99h-.66Q-192.39,56.1-191.4,56.43Zm-4.29,1.65a2,2,0,0,1,.495-.99q.5-.66-.495-.66.33.66-.165.99T-195.69,58.08Zm-1.65.99q.66.66.165.99t.165.66q.66-.66.495-.99t.495-.99q-.66,0-.66.165T-197.34,59.07Zm5.28.66q0-.66.495-.495t.165-.5a.652.652,0,0,0-.99.33Q-192.72,59.73-192.06,59.73Zm-2.97-.33q.33.99.33,0T-195.03,59.4Zm3.63.99q.33.99.33,0T-191.4,60.39Zm-5.28,2.31q1.98-.66,1.98-1.98Q-196.68,61.38-196.68,62.7Zm-.66-1.32q-.66,0-.66.33.33,0,.33.66-.99,0-.5.495t.5-.495Q-197.34,62.37-197.34,61.38Zm64.02,0q.33.99.33,0T-133.32,61.38Zm.33,2.97a2.239,2.239,0,0,0-.66-1.65Q-133.65,64.35-132.99,64.35Zm-64.35.99q.33.99.33,0T-197.34,65.34Zm2.97-.33q-.66.66.165.66T-194.37,65.01Zm60.06.99q0,1.32-.495,1.65t-.5,1.65h-.66v.99q.66.33.66-.99.99.33.825-.165a3.656,3.656,0,0,1-.165-1.155q1.32-.33.99-1.155a1.279,1.279,0,0,1,.33-1.485q-.66-.33-.5.165t-.495.495q0-.66-.33-.66a3.839,3.839,0,0,0-.66.99.652.652,0,0,0,.33.99A1.9,1.9,0,0,1-134.31,66Zm-64.35,1.32q1.32-.66-.33-1.65Q-199.98,66.66-198.66,67.32Zm6.6-1.65q-.66,0-.66.33Q-192.06,66-192.06,65.67Zm-6.93,2.64a.672.672,0,0,1-.495-.165.672.672,0,0,0-.495-.165v1.65h-.33a2.525,2.525,0,0,1,.165,1.485q-.165.495.5.825a2.776,2.776,0,0,0-.33-2.31q.66,0,.66-.5t.66-.165q.66,1.65-.33,2.31t.33,1.32a6.188,6.188,0,0,0,.66-2.805,2.388,2.388,0,0,1,.99-2.145q-.99,0-.5-.33t.165-.99A5.38,5.38,0,0,0-198.99,68.31Zm-1.65-.99q.33.66.495-.165T-200.64,67.32Zm.99,0q.33.99.33,0T-199.65,67.32Zm6.6.66q-.66,0-.66.33Q-193.05,68.31-193.05,67.98Zm-7.92.66q.33.66.495-.165T-200.97,68.64Zm-.33.99Zm7.26.66q0-.99-.66-.99Q-194.7,70.62-194.04,70.29Zm-2.31.33q.99,0,.99-.66Q-196.35,69.96-196.35,70.62Zm1.32.99q.33.99.33,0T-195.03,71.61Zm-1.32.33q.33.99.33,0T-196.35,71.94Zm59.4,2.64q0-.66.33-.825t.33-.825q-.66-.33-.99.495T-136.95,74.58Zm-65.67,6.93a5.429,5.429,0,0,1-.33,1.65,1.337,1.337,0,0,0,.66,1.65,11.455,11.455,0,0,1,.66-5.775,9.542,9.542,0,0,0,.66-5.115Q-201.96,77.88-202.62,81.51Zm2.97-6.6q.33.66.495-.165T-199.65,74.91Zm62.37.33q.33.99.33,0T-137.28,75.24Zm-63.03,1.65q.99,0,.99-1.32Q-200.31,75.57-200.31,76.89Zm4.29,1.98q.33.33.165-.99t-.5-.66a1.182,1.182,0,0,1-.165,1.32Q-197.01,79.2-196.02,78.87Zm57.75-1.65q-.33,1.65,0,.33T-138.27,77.22Zm-62.37,2.31q.66.33.66-.825t-.33-1.155a1.345,1.345,0,0,1-.33.99Q-200.97,78.87-200.64,79.53Zm60.39,1.65q-.66,0-.165.5t.165-.5q1.65-.99,1.32-2.31-.66,0-.66-.165t-.33-.165a1.969,1.969,0,0,1-.33,1.98q0-.66-.33-.66a1.305,1.305,0,0,0,.165.825A.672.672,0,0,1-140.25,81.18Zm-63.69,1.98a3.008,3.008,0,0,0,.33-1.815q0-1.485-.66-1.815a2.177,2.177,0,0,1,0,2.31Q-204.93,83.16-203.94,83.16Zm7.26-2.64a.529.529,0,0,1,.33-.5q.33-.165-.33-.495a.529.529,0,0,1-.33.495Q-197.34,80.19-196.68,80.52Zm-3.96,0q-.66,0-.495.66a4.513,4.513,0,0,1,.165.99,47.5,47.5,0,0,0-.66,8.415,25.06,25.06,0,0,0,1.65,9.075,18.346,18.346,0,0,1,0-6.93q.33.66.33.33a.292.292,0,0,0-.33-.33,3.513,3.513,0,0,1-.66-2.475q0-1.815.66-1.485a5.326,5.326,0,0,1-.5-2.97q.165-1.65.5-3.3-.99,0-.99-.33.99,0,.99-.33-.66,0-.66-.33v-.99h.33q.33.66.33.33a.292.292,0,0,0-.33-.33q0-.66-.165-.66T-200.64,80.52Zm3.3.99q.33.99.33,0T-197.34,81.51Zm0,.99q.33.99.33,0T-197.34,82.5Zm-6.6,3.63a.672.672,0,0,0-.165-.495.672.672,0,0,1-.165-.5q.66,0,.66-.33-.66-.99-.99.33T-203.94,86.13Zm5.94-.33q.33.99.33,0T-198,85.8Zm-.99,1.32q0-.99-.66-.99Q-199.65,87.12-198.99,87.12Zm.99-.33q.33.99.33,0T-198,86.79Zm-6.6.99h.66v-.66h-.66Zm6.6,4.62V90.255q0-1.485-.66-.5a1.1,1.1,0,0,1,.165,1.485Q-198.99,92.07-198,92.4Zm53.13-1.98h.66v-.66h-.66Zm-.99,1.65q.33.66.5-.165T-145.86,92.07Zm-55.77,13.53q-.33,1.65,0,.33T-201.63,105.6Zm47.19,1.98q.33.99.33,0T-154.44,107.58Zm-28.05,12.54Zm24.09-245.85v.66q-.33,0-.33.66a.292.292,0,0,0-.33.33q-1.32,0-.495-.5a1.392,1.392,0,0,0,.825-1.155Zm-3.63,6.27q-.33-.99.165-.5T-162.03-119.46Zm24.09-.33a.292.292,0,0,1,.33.33Q-137.61-119.13-137.94-119.79Zm-24.09.33a.292.292,0,0,1-.33.33Q-162.69-119.13-162.03-119.46Zm-.66.99q.33-.99.33,0T-162.69-118.47Zm-.33.99a3.8,3.8,0,0,1-1.32,2.64q-.33-.99.33-1.32a1.33,1.33,0,0,0,.66-1.32Zm-2.97,6.27Zm0,0v.33q-.33,0-.33-.165T-165.99-111.21Zm110.55,1.32Zm-1.32,1.32a.292.292,0,0,1,.33-.33A.292.292,0,0,1-56.76-108.57Zm-110.22.33q.33-.99.33,0T-166.98-108.24Zm110.22-.33a.583.583,0,0,1-.66.66A.583.583,0,0,1-56.76-108.57Zm-1.32.99q0-.33.66-.33Q-57.42-107.58-58.08-107.58Zm2.31,0q0-.66.5-.165T-55.77-107.58Zm-3.96.33q0-.33.66-.33Q-59.07-107.25-59.73-107.25Zm1.32,0a.292.292,0,0,1,.33-.33v.33Zm2.64-.33q-.66.66-1.155.165T-55.77-107.58Zm-2.64.33q0,.33.165.33t.165-.33q.99,0,.165.66a1.344,1.344,0,0,1-1.485.33q0-.66.5-.495t.165-.5Zm1.65.99Zm-111.21.99q0-.99.66-.99-.33.33-.33.5T-167.97-105.27Zm108.9.66q-1.32,0-.99.66-.33,0-.33-.165t-.33-.165h0q0,.66-.66,0t-.33.66q-.33,0-.33-.99.99,0,.825-.33a2.3,2.3,0,0,1-.165-.99q.66.66.825.33t.825-.33q0,.33.66.99Zm-108.9-.66q.33.99-.165.495T-167.97-105.27Zm105.93.66q-.66,0-.165-.5T-62.04-104.61Zm3.63-.33q.33-.66.825-.165T-58.41-104.94Zm0,0q0,.66-.165.66t-.165.66q-.33,0-.33-.99.33,0,.33-.165T-58.41-104.94Zm-4.95,1.32Zm6.6.33a.292.292,0,0,1,.33-.33.292.292,0,0,1,.33.33q0,.66-.165.33A.529.529,0,0,0-56.76-103.29Zm-.99,1.65a.292.292,0,0,0-.33-.33v-.66q.99-.33,1.155.33a.78.78,0,0,0,.825.66Q-56.43-100.98-57.75-101.64Zm-.33-.33a.292.292,0,0,0,.33.33,2.491,2.491,0,0,1-.825.99q-.5.33-.5-.99A1.345,1.345,0,0,0-58.08-101.97Zm-4.95,1.32Zm1.98,0a.529.529,0,0,1-.33.495.529.529,0,0,0-.33.5q-.66,0-.33-.66A.652.652,0,0,1-61.05-100.65Zm1.98,1.32q-.66.66-.66,0a2.929,2.929,0,0,0-.33-1.32Q-59.07-100.65-59.07-99.33Zm-1.65.33a1.57,1.57,0,0,0-.5,1.485A3.523,3.523,0,0,1-61.38-95.7q-.66,0-.66.33t-.66-.33a.875.875,0,0,1,.99-.99.672.672,0,0,0-.165-.5.672.672,0,0,1-.165-.495q-.66-.33-.66.33t-.66.33Q-63.03-99-60.72-99Zm0,0Zm1.65-.33a.292.292,0,0,1,.33.33Q-58.74-98.67-59.07-99.33Zm-10.56.99Zm-.33.66Zm5.28.99q.66.66.66,0,.66.33.165.66t-.5.66Q-64.68-95.37-64.68-96.69Zm-1.65.66q.66.33.33.495a.529.529,0,0,0-.33.5q-.66-.33-.33-.5A.529.529,0,0,0-66.33-96.03Zm.66,2.97q.33-.99.33,0T-65.67-93.06Zm-27.72,1.65a.292.292,0,0,1,.33.33Q-93.06-90.75-93.39-91.41Zm25.08.33v-.33h.33A.292.292,0,0,1-68.31-91.08Zm-52.8,2.97q0-.33.66-.33Q-120.45-88.11-121.11-88.11Zm-3.3,8.58a35.652,35.652,0,0,1,3.3-7.92A26.309,26.309,0,0,1-122.6-83,34.373,34.373,0,0,1-124.41-79.53Zm51.81-7.92a.292.292,0,0,1,.33.33Q-72.27-86.79-72.6-87.45Zm1.65,0q.66,0,.165.5T-70.95-87.45ZM-173.91-85.8q.33.99-.165.5T-173.91-85.8Zm78.87,1.32q.99,0,.495.33t-.165.99Q-95.04-83.16-95.04-84.48Zm21.12.33v-.33q.33,0,.33.165T-73.92-84.15Zm0,0a.292.292,0,0,1-.33.33Q-74.58-83.82-73.92-84.15Zm-1.65,1.98a.292.292,0,0,1-.33.33Q-76.23-81.84-75.57-82.17Zm-3.96,1.98a.292.292,0,0,1,.33-.33A.292.292,0,0,1-79.53-80.19Zm.66-.33a.292.292,0,0,1,.33.33Q-78.54-79.86-78.87-80.52Zm3.3.99q.33-.99.33,0T-75.57-79.53Zm-48.51.66q.33-.99.33,0T-124.08-78.87Zm44.55-.33q.66,0,.165.5T-79.53-79.2Zm-77.88,1.32q.66.33.33.5a.529.529,0,0,0-.33.495q-.66-.33-.33-.495A.529.529,0,0,0-157.41-77.88Zm78.54.66q0-.33.165-.33t.165.33Zm0,0a.292.292,0,0,1-.33.33Q-79.53-76.89-78.87-77.22Zm.33,0q.66,0,.165.495T-78.54-77.22Zm-3.96.66v-.33h.33A.292.292,0,0,1-82.5-76.56Zm1.98.99a.292.292,0,0,1-.33.33Q-81.18-75.24-80.52-75.57Zm.66.33q0-.33.66-.33Q-79.2-75.24-79.86-75.24Zm-2.64.99Zm0,.33v-.33q.33,0,.33.165T-82.5-73.92Zm0,0q0,.66-.33.825t-.33.825q-.99-.33-.495-.825A4.4,4.4,0,0,1-82.5-73.92Zm-3.63,1.32q0,.66-.33.66Q-86.46-72.6-86.13-72.6Zm2.64.99Zm-2.64.66a.914.914,0,0,1,.165,1.32.847.847,0,0,1-1.155.33.762.762,0,0,1,.5-.825A.762.762,0,0,0-86.13-70.95Zm-2.64,1.65q.33-.99.33,0T-88.77-69.3Zm3.3.33Zm-2.64.66q0-.99.495-.5T-88.11-68.31Zm0,0q0,.66-.5.66t-.165-.99q.33,0,.33.165T-88.11-68.31Zm-4.29,3.3q.99.33.33.99Q-92.4-64.02-92.4-65.01Zm-1.32.66a.583.583,0,0,1,.66.66A.583.583,0,0,1-93.72-64.35Zm-.66.33a.292.292,0,0,1,.33.33Q-94.05-63.36-94.38-64.02Zm1.32.33q1.32-.33.5.495T-93.06-63.69Zm-.99,1.32q0-.66.5-.165T-94.05-62.37Zm0,0q0,.99-.5.495T-94.05-62.37Zm-1.65,1.65Zm0,0a.292.292,0,0,1-.33.33Q-96.36-60.39-95.7-60.72Zm.33.99q.33-.99.33,0T-95.37-59.73Zm-1.98.66q.33-.99.33,0T-97.35-59.07Zm-1.98,2.97q0-1.65.99-1.65,0,.66-.33.825T-99-56.1Zm0,0a.292.292,0,0,1-.33.33Q-99.99-55.77-99.33-56.1Zm-1.32,1.65a.292.292,0,0,1,.33.33Q-100.32-53.79-100.65-54.45Zm-.99,4.95q.33-.99.33,0T-101.64-49.5Zm-4.29,16.83q0-.99.495-.495T-105.93-32.67Zm-.33,1.65Zm0,0a.292.292,0,0,1-.33.33Q-106.92-30.69-106.26-31.02Zm-15.18,65.01a.292.292,0,0,1,.33.33Q-121.11,34.65-121.44,33.99Zm-1.98,6.27q.66,0,.165.495T-123.42,40.26Zm-75.57,28.05a.672.672,0,0,0,.5-.165q.165-.165.165.495Q-198.99,68.64-198.99,68.31Zm-6.27,13.86Zm1.98,6.93q-.33.66.165.99t.165.99q-1.65-.99-.66-1.98Zm-.99,11.22q.66,0,.66,1.32Q-204.27,101.97-204.27,100.32Zm3.96,8.91q.66.33.165.825T-200.31,109.23Zm45.21.33a.292.292,0,0,1-.33.33Q-155.76,109.89-155.1,109.56Zm-5.61,5.28Zm-23.43,4.95h.33q0,.33-.165.33T-184.14,119.79ZM18.48-90.75h-.33q0,.33.165.33t.165-.33a.951.951,0,0,0,.33-.66q0-.33.66-.99.33,0,.33.165t.33.165q0,1.32-.33.825t-.66.165q-.66.66.165.66t.5.66H18.48q0,.33.66.99a1.757,1.757,0,0,0,1.32-2.145,6.038,6.038,0,0,1,0-2.805q.33,0,.33,1.32a2.182,2.182,0,0,0,.33-1.98,1.881,1.881,0,0,1,.66-1.98,3.839,3.839,0,0,0,.66.99,3.838,3.838,0,0,1,.66.99.583.583,0,0,0-.66.66.583.583,0,0,0,.66-.66,1.9,1.9,0,0,0,.66-1.32,2.929,2.929,0,0,1,.33-1.32,3.125,3.125,0,0,1,0,2.8,2.124,2.124,0,0,0,.33,2.475q.66.33.5-.66t1.155-.66a2.114,2.114,0,0,0,1.32,1.98,20.164,20.164,0,0,1-1.65,4.125A12.505,12.505,0,0,0,24.42-82.5a5.018,5.018,0,0,0,1.32-2.64,1.644,1.644,0,0,0,1.65-.33,38.456,38.456,0,0,1-7.92,15.84q-.66,0-.495.33t.825.33a58.622,58.622,0,0,0-5.28,7.59,21.379,21.379,0,0,1-5.94,6.6,8.1,8.1,0,0,1-4.29,5.61,3.735,3.735,0,0,1-3.3,3.3,8.972,8.972,0,0,1-2.97,4.29,33.6,33.6,0,0,0-3.96,3.96q-.33-.33-.495-.165t.495.165a29.137,29.137,0,0,0-2.97,3.465,8.513,8.513,0,0,1-3.63,2.805q0,.66-.33.825t0,.825a41.07,41.07,0,0,0-9.075,7.59,28.663,28.663,0,0,1-9.405,6.93q-.66.33-.66.825a2.659,2.659,0,0,1-.33,1.155,72.928,72.928,0,0,1-9.24,4.785A72.928,72.928,0,0,0-50.82-3.63a33.764,33.764,0,0,1-15.51.33A29.67,29.67,0,0,1-79.2-9.735,36.856,36.856,0,0,1-88.275-21.45,33.463,33.463,0,0,1-91.74-36.63a36.733,36.733,0,0,1,1.65-12.21A54.007,54.007,0,0,1-86.13-59.4q-.66-.66,0-2.97a6.023,6.023,0,0,0,1.815-2.145,4.463,4.463,0,0,0,.495-3.135q2.97-5.61,6.27-10.89t6.6-10.89a1.583,1.583,0,0,0,1.155-.495q.5-.5,1.155.165,1.65-2.64,3.3-4.95a14.874,14.874,0,0,1,4.29-3.96,33.061,33.061,0,0,1,8.25-9.9,116.142,116.142,0,0,0,9.57-8.58.672.672,0,0,1,.5.165.672.672,0,0,0,.495.165,8.378,8.378,0,0,1,3.465-3.795q2.145-1.155,4.785-2.475a2.179,2.179,0,0,1,1.815-1.65,12.129,12.129,0,0,0,2.805-.99q2.31-1.32,5.115-3.135a5.793,5.793,0,0,1,6.1-.165q.66-.33-.33-.495t-.33-.825a1.738,1.738,0,0,1,1.485.66q.5.66,2.145.33A12.146,12.146,0,0,1-9.4-123.42a43.6,43.6,0,0,0,4.455,7.26,21.508,21.508,0,0,1-.495,6.93,11.918,11.918,0,0,1-3.135,5.94q0,.66.33.5t.33.5A182.719,182.719,0,0,1-22.275-79.2Q-30.03-68.64-38.28-58.08a64.987,64.987,0,0,0-6.93,6.6q-3.3,3.63-6.93,6.93a35,35,0,0,1-7.92,5.445A25.927,25.927,0,0,1-70.29-36.63,8.618,8.618,0,0,0-72.1-37.95a8.618,8.618,0,0,1-1.815-1.32,19.359,19.359,0,0,0-2.145,8.745,66.439,66.439,0,0,0,.5,10.395,14.277,14.277,0,0,0,6.435,1.32A14.277,14.277,0,0,0-62.7-20.13a1.911,1.911,0,0,1,1.32.33A55.836,55.836,0,0,0-49-25.575,118.249,118.249,0,0,0-38.61-33q4.95-3.96,9.57-8.415t9.57-8.415q4.95-5.61,10.4-11.22T1.32-72.6h.33l.33.33a3.1,3.1,0,0,0,.825-1.815A1.292,1.292,0,0,1,4.29-75.24q.33.66-.5.66t-.165.66a16.787,16.787,0,0,0,2.8-2.805A3.33,3.33,0,0,0,7.26-80.19a1.619,1.619,0,0,0,1.98-.825,2.141,2.141,0,0,1,1.98-1.155,3.052,3.052,0,0,1,0-1.98q1.65.66,1.815-1.65t1.815-2.31q0-.66-.33-.825t0-.825a2,2,0,0,0,1.32-1.155,10.115,10.115,0,0,1,.99-1.815q.66,0,.33.66a2.533,2.533,0,0,0-.33.99q.33.66.66-.33t.99-.66ZM-56.76-76.23q-.66,0-.66-.165t-.33-.165a9.586,9.586,0,0,1-2.805,6.105,11.259,11.259,0,0,0-3.135,6.1,4.656,4.656,0,0,0-1.485,1.485Q-66-61.71-65.01-61.38A143.189,143.189,0,0,0-44.055-82.83q9.405-11.88,18.645-24.09a3.023,3.023,0,0,1,1.155-2.97q1.485-1.32.825-2.31A144.577,144.577,0,0,0-56.76-76.23Zm15.51-23.1q-.66,0-.66.33h.33A.292.292,0,0,0-41.25-99.33Zm63.69,7.59a1.5,1.5,0,0,1-.165-1.155q.165-.5-.495-.165Q21.12-91.74,22.44-91.74Zm.33,1.98Zm-1.98.33q-.99,0-.495.5T20.79-89.43Zm1.32.66q-.33,1.65-.165.33T22.11-88.77Zm2.64,1.65q-.66,0-.66.33h.33A.292.292,0,0,0,24.75-87.12ZM14.19-85.47v-.99Q13.53-85.8,14.19-85.47Zm-2.97,4.62q-.66.33-.33.33a.292.292,0,0,0,.33-.33q.66-.66,1.65-1.815a1.657,1.657,0,0,0,.33-2.145,13.571,13.571,0,0,1-1.155,1.98A5.625,5.625,0,0,0,11.22-80.85Zm5.94-2.64a.292.292,0,0,0-.33-.33.292.292,0,0,0-.33.33.292.292,0,0,1,.33.33Q16.83-82.83,17.16-83.49Zm1.65,1.98q-.33,1.98.165.66T18.81-81.51Zm4.95.99v-.99Q23.1-80.85,23.76-80.52Zm-9.57.66a.875.875,0,0,0,.99-.99q-.66-.33-.66.165A1.119,1.119,0,0,1,14.19-79.86Zm-72.27-.33Zm75.9,0q.33.99.33,0T17.82-80.19Zm3.63,3.3h-.33l-.33.33v.66q.66.33.66-.99a.583.583,0,0,0,.66-.66,1.057,1.057,0,0,1,.66-.99Q21.45-78.54,21.45-76.89Zm-9.24.33q.33.66.5-.165T12.21-76.56Zm-4.95.66q.33.66.5-.165T7.26-75.9ZM5.94-74.25q.33,0,.33.165t.33.165a.951.951,0,0,1,.33-.66l-.66-.33q0,.33-.165.33T5.94-74.25ZM1.32-71.28q.33.99.33,0T1.32-71.28ZM-9.57-55.77q.33.66.5-.165T-9.57-55.77ZM20.13-95.7q0-.33.66-.33l-.33.33Zm-.66,3.3q-.66-.33-.165-.825T19.47-92.4Zm8.91,1.65q.66-.66.5.165t.495.825q-.33.66-.825.165A.915.915,0,0,1,28.38-90.75Zm-.99,5.28a7.649,7.649,0,0,0-.165-1.485q-.165-.825.825-.5a.583.583,0,0,0-.66-.66q0-.66.33-.66t.33-.66q.66.66.33,1.155t.33,1.155a1.11,1.11,0,0,1-.5.99A5.408,5.408,0,0,0,27.39-85.47Zm102.3-4.62q.33.99-.165,1.155a1.5,1.5,0,0,0-.825.825q.99.33,1.155-.33a.78.78,0,0,1,.825-.66v.33q.33,0,.33-.165t-.33-.165q-.33-1.32.825-1.155t1.155-.825a.946.946,0,0,1,.5,1.155,2.268,2.268,0,0,1-.5,1.155q-.66.33-.165.66t.165.99q-.66.66-.66.33t-.66-.33a2.929,2.929,0,0,0-.33,1.32,2.929,2.929,0,0,1-.33,1.32,2.585,2.585,0,0,0,.66.5,2.586,2.586,0,0,1,.66.495q0-.66,1.65-1.65a6.127,6.127,0,0,1-1.98,6.435,11.738,11.738,0,0,0-3.63,6.765q-.66-.66-.495-.33t-.495.66q1.32.99,1.485-.33a1.81,1.81,0,0,1,1.485-1.65,4.185,4.185,0,0,1-.99,1.98,4.184,4.184,0,0,0-.99,1.98,1.344,1.344,0,0,1-.99-.33q-.33-.33-.99,0,.33.99.99,1.155a1.477,1.477,0,0,1,.99.825,3.517,3.517,0,0,1-.33,1.815,6.467,6.467,0,0,0-.66,1.485q-.99,0-.99-.66a7.678,7.678,0,0,1-1.32,1.98q.66.33.99-.165t.33.165q-3.63,7.59-7.59,14.52l-7.92,13.86q-.33.66,0,.825t.33.825a5,5,0,0,0-3.63,3.3,4.948,4.948,0,0,1-3.3,3.3v1.98a8.47,8.47,0,0,0-3.63,4.455q-.99,2.805-4.62,3.465v1.32h-.99a2.064,2.064,0,0,0-.165,1.32,1.171,1.171,0,0,1-.165.99,6.941,6.941,0,0,1-3.135,1.815A3.512,3.512,0,0,0,88.77-8.91a7.942,7.942,0,0,0-2.145.825Q85.8-7.59,84.81-6.93a63.786,63.786,0,0,1-11.22-.33A34.633,34.633,0,0,1,63.525-9.9,20.675,20.675,0,0,1,56.1-15.345a13.458,13.458,0,0,1-2.97-9.075,1.81,1.81,0,0,0-1.485,1.65q-.165,1.32-1.815.99a19.726,19.726,0,0,1-4.29,8.58,63.387,63.387,0,0,0-5.61,7.26,18.577,18.577,0,0,0-3.96,3.8A7.71,7.71,0,0,1,31.35.66q0-.66.33-.825T31.35-.33q-.66-.33-.66.33t0,1.32A15.71,15.71,0,0,1,18.81,4.95Q14.19,4.62,9.24,3.8A36.1,36.1,0,0,1,0,.99,21.043,21.043,0,0,1-7.26-4.455a13.985,13.985,0,0,1-3.3-8.415q.33-3.3.66-6.93a14.4,14.4,0,0,0-.33-5.61q.33-1.65.66-3.96a14,14,0,0,0,0-4.29,3.572,3.572,0,0,1,1.65-1.32q1.65-6.6,2.805-13.035A43.062,43.062,0,0,1-1.32-59.73q.33,0,.99.66A7.58,7.58,0,0,0,1.485-63.2,12.415,12.415,0,0,1,3.3-67.98q0-.66-.495-.5a.747.747,0,0,1-.825-.165,18.316,18.316,0,0,1,1.155-2.475A8.047,8.047,0,0,0,3.96-73.59q.66-.33.66.165t.66.495a23.21,23.21,0,0,1,1.485-1.98,3.992,3.992,0,0,0,.825-2.64.292.292,0,0,0,.33-.33.292.292,0,0,0-.33-.33v-.99a.825.825,0,0,1,1.32,0q1.98-3.96,4.125-7.59t4.125-7.26q.99-.33,1.65-2.31,2.64-3.63,5.61-7.425t5.94-7.425a.583.583,0,0,0-.66-.66,29.738,29.738,0,0,1,7.59-8.91,73.209,73.209,0,0,0,8.58-7.92,12.7,12.7,0,0,0,5.445-3.135,6.862,6.862,0,0,1,5.775-1.815q0-.33.99.66.66,0,.825-.33t.825,0a26.713,26.713,0,0,0,4.29,1.98,12.827,12.827,0,0,1,4.62,2.97,4.4,4.4,0,0,1,.99,1.485,4.4,4.4,0,0,0,.99,1.485,15.722,15.722,0,0,0,2.31,1.485,2.5,2.5,0,0,1,1.32,1.485.847.847,0,0,1-.33,1.155q-.66.495.33.495a35.474,35.474,0,0,1-2.31,9.24,37.034,37.034,0,0,0-2.31,7.59,3.553,3.553,0,0,0,2.64-3.3,3.553,3.553,0,0,1,2.64-3.3q-.99-1.65,1.32-2.31a7.509,7.509,0,0,1,1.815-5.28,10.75,10.75,0,0,0,2.475-5.28,6.472,6.472,0,0,1,1.98.165q.33.165,1.32-.5a12.1,12.1,0,0,0,4.125,2.64,5,5,0,0,1,3.135,3.63,5.939,5.939,0,0,1,3.63,3.63,53.715,53.715,0,0,0-3.3,14.025A47.058,47.058,0,0,1,86.79-84.15a31.334,31.334,0,0,1-1.485,7.1Q84.15-73.59,83.16-70.29a1.345,1.345,0,0,0,.33.99,15.8,15.8,0,0,0-.825,2.475,27.408,27.408,0,0,1-.825,2.805,4.128,4.128,0,0,0-2.145.5A7.671,7.671,0,0,0,78.21-62.37a5.237,5.237,0,0,0,1.485.33,3.178,3.178,0,0,0,1.485-.66,3.563,3.563,0,0,1,0,2.145,2.022,2.022,0,0,1-1.32,1.485q.33-.66.165-.825a2.193,2.193,0,0,1-.165-1.155,7.249,7.249,0,0,1-2.145,1.32,4.045,4.045,0,0,0-2.145,2.31q.33.66.5.495a1.305,1.305,0,0,1,.825-.165v2.64q-2.64-.66-2.31.825a4.1,4.1,0,0,1-.33,2.805q1.32.33,1.32-1.32.66,0,.33.66t0,.99q-1.98-.33-2.145,2.475A9.773,9.773,0,0,1,72.6-43.56q0,.66,1.65.66a20.539,20.539,0,0,1,.495,9.4A12.263,12.263,0,0,0,76.56-24.42,60.947,60.947,0,0,0,95.04-45.87a.672.672,0,0,0,.495-.165,1.305,1.305,0,0,1,.825-.165q-.33-2.97,1.65-4.125a3.175,3.175,0,0,0,1.65-3.465q.66,0,.66.33t.66-.33q.33-.66,0-.825t-.33-.825a141.126,141.126,0,0,0,10.065-14.85A172.377,172.377,0,0,1,120.78-85.47q1.32.66,1.155-.5t1.155-.825q0,.66-.495.66t-.5.66q1.32.33,1.65-.5a1.28,1.28,0,0,0-.33-1.485,4.139,4.139,0,0,0,2.97-2.31,4.005,4.005,0,0,1,2.64-2.31,2.929,2.929,0,0,1-.33,1.32Q128.37-90.09,129.69-90.09ZM51.81-131.34h.66V-132h-.66ZM34.32-116.49a.292.292,0,0,0-.33.33.292.292,0,0,0-.33.33.292.292,0,0,0,.33-.33.292.292,0,0,0,.33-.33Zm-1.65,1.65Zm.66,26.4q-3.96,6.93-7.755,13.695a150.979,150.979,0,0,0-6.93,14.025A135.182,135.182,0,0,0,13.2-45.705,78.6,78.6,0,0,0,10.23-29.04a2.659,2.659,0,0,0-.825,2.31A2.435,2.435,0,0,1,8.25-24.42a1.119,1.119,0,0,0,.825.33q.495,0,.165.66a14.156,14.156,0,0,0-.99,7.26q.33,4.62.33,7.92a38.631,38.631,0,0,0,10.89-7.59,69.449,69.449,0,0,0,8.415-10.23q3.795-5.61,7.1-11.55a97.953,97.953,0,0,1,7.26-11.22q.66-1.98,1.32-3.63a7.3,7.3,0,0,1,2.31-2.97q0-2.64,1.32-3.63a4.754,4.754,0,0,0,1.65-3.3,3.839,3.839,0,0,0,.99-.66,3.839,3.839,0,0,1,.99-.66q.33-2.64,3.3-4.95a1.119,1.119,0,0,1-.33-.825q0-.495-.66-.825a14.694,14.694,0,0,0,2.97-4.95,12.183,12.183,0,0,1,3.3-4.95,1.089,1.089,0,0,0,0-1.155,2.033,2.033,0,0,1-.33-1.155,3.085,3.085,0,0,0,1.98-2.475q.33-1.815.66-3.465a60.647,60.647,0,0,1-8.085-3.795A26.786,26.786,0,0,1,46.86-97.68a7.4,7.4,0,0,1,.99-5.775q1.65-2.475.99-4.455a81.332,81.332,0,0,0-7.755,9.735A81.331,81.331,0,0,1,33.33-88.44ZM68.97-99.66h-.66q-.66.66.33.99a1.345,1.345,0,0,0,.33-.99q.66-.33.495-.66a1.171,1.171,0,0,1,.165-.99q-.66,0-.66.165t-.66.165q-.33.66.165.66T68.97-99.66Zm-2.64,6.93q.66.33.5-.33a.8.8,0,0,1,.495-.99Q66.33-94.05,66.33-92.73Zm57.09,11.22q-.33.99.33.99a1.345,1.345,0,0,1,.99.33q-.33-.66.165-.99t-.165-.66q0,.66-.495.66A1.119,1.119,0,0,1,123.42-81.51Zm5.61,1.32h0q-.33,0-.33-.165t-.33-.165a1.344,1.344,0,0,0-.33.99h.66Q129.03-79.53,129.03-80.19ZM84.48-77.88q.33-.99-1.32-.99-.33.66.33.495A.8.8,0,0,1,84.48-77.88Zm43.89-.33q.33.99.33,0T128.37-78.21Zm-1.65,1.32q-.66.66.165.825t.825-.5a.672.672,0,0,1-.495-.165.672.672,0,0,0-.5-.165q.99-.99,0-.99Q125.73-76.89,126.72-76.89ZM82.83-74.25q-.66,0-.66.33Q82.83-73.92,82.83-74.25Zm-.99,7.26q1.32-.66-.33-1.65a2.3,2.3,0,0,1-.165.99Q81.18-67.32,81.84-66.99Zm43.23-.99q1.32,0,.5.165t-.825.825q.66.66,1.155-.165a2.9,2.9,0,0,1,1.155-1.155,1.61,1.61,0,0,0-1.155-.33Q125.07-68.64,125.07-67.98Zm1.32.99v.66h.66a.292.292,0,0,1,.33-.33v-.66h-.66A.292.292,0,0,1,126.39-66.99ZM78.21-61.05q.33.66.495-.165T78.21-61.05ZM-1.32-55.77q-.66,0-.66.33Q-1.32-55.44-1.32-55.77Zm13.53,8.58h.66v-.66h-.66ZM72.6-37.62a1.709,1.709,0,0,1,.165-1.65q.495-.66-.495-.99a1.749,1.749,0,0,1,0,1.485Q71.94-37.95,72.6-37.62Zm.66,9.24a5.787,5.787,0,0,0,.165-3.63,28.2,28.2,0,0,0-1.155-3.63,18.677,18.677,0,0,1,.165,4.125A5,5,0,0,0,73.26-28.38ZM52.47-26.07q.33.66.33.33a.292.292,0,0,0-.33-.33q.33-.99-.165-.5T52.47-26.07Zm-2.31,2.64q.33.66.495-.165T50.16-23.43ZM7.92-21.45q0-1.32-.66-1.32-.66.66-.33,1.155T7.92-21.45Zm0,2.64q-.33,0-.33-.165t-.66-.165q-.66.66.165.825T7.92-18.81Zm33.99,5.28q.66.66.495.99a1.171,1.171,0,0,0,.165.99,1.427,1.427,0,0,1,.66-1.155q.66-.495,0-1.155Q43.23-13.53,41.91-13.53ZM39.6-7.92a19.293,19.293,0,0,1,1.98-1.65q1.32-.99.99-1.65a5.732,5.732,0,0,1-1.815,1.155A2.078,2.078,0,0,0,39.6-7.92ZM39.27-9.9q.33.99.33,0T39.27-9.9ZM18.81-96.36a.583.583,0,0,1-.66-.66h.66Zm110.88,6.27a.672.672,0,0,1,.165-.5,1.305,1.305,0,0,0,.165-.825q.66,0,.495.66A.78.78,0,0,1,129.69-90.09Zm2.97,1.32a.292.292,0,0,1,.33.33Q132.99-88.11,132.66-88.77ZM10.56-84.15q.33-.99.33,0T10.56-84.15ZM9.9-82.5a1.119,1.119,0,0,0-.33.825q0,.5-.66.165A.875.875,0,0,1,9.9-82.5ZM7.59-78.21v.66a.292.292,0,0,1-.33-.33A.292.292,0,0,1,7.59-78.21Zm123.09,2.97q.66,0,.495.825t-.825.165v-.66A.292.292,0,0,0,130.68-75.24ZM76.89-58.08q.33-.99.33,0T76.89-58.08Zm.99,1.65q.66.33.66,1.65H77.22q0-.66.33-.825T77.88-56.43Zm1.65.66a.292.292,0,0,1,.33-.33.292.292,0,0,1,.33.33q0,.66-.165.33A.529.529,0,0,0,79.53-55.77Zm-1.98,1.65h.66v.99a.672.672,0,0,1-.5-.165.672.672,0,0,0-.5-.165q0-.33.165-.33T77.55-54.12Zm-.99,3.3a.292.292,0,0,1,.33-.33h.66q.33.33-.5.66T76.56-50.82Zm-1.98,3.63q.33-.99.33,0T74.58-47.19Zm.33,1.98q0-.33.66-.33Q75.57-45.21,74.91-45.21Zm70.29-97.68h-.33q0,.33.165.33t.165-.33a14.462,14.462,0,0,0,4.785,3.135q2.8,1.155,2.475,4.785a52.087,52.087,0,0,0-7.26,11.55,40.957,40.957,0,0,0-3.96,13.53q1.65-.66,3.3-1.485a19.385,19.385,0,0,0,2.97-1.815,3.3,3.3,0,0,0,2.805.66q1.485-.33,3.465-.66,0,.33-.165.33t-.165.66a7.033,7.033,0,0,0,2.475-.33,4.6,4.6,0,0,1,2.475,0,6.4,6.4,0,0,0,2.97,2.97,6.466,6.466,0,0,0,4.95.66v.99q2.31,0,2.64,1.65t2.97,1.32a2.929,2.929,0,0,1,.33,1.32,1.057,1.057,0,0,0,.66.99,102.719,102.719,0,0,0-5.61,11.715,95.978,95.978,0,0,0-3.96,12.375.672.672,0,0,0-.495.165,1.305,1.305,0,0,1-.825.165q-.33.66,0,.825t.33.825q-.99.33-.825.825T160.38-74.58q0,.33.66.33-.66.66-.33.825t.33.825q-.99,0-.99.33a4.284,4.284,0,0,1-.165,3.465A4.547,4.547,0,0,1,157.41-66a3.432,3.432,0,0,0,.165,1.32,4.826,4.826,0,0,1,.165,1.65q-.99,0-1.815,1.32t.165,1.65a18.2,18.2,0,0,1-.66,3.63,1.345,1.345,0,0,1-.99-.33q-.66,0-.165.495a1.351,1.351,0,0,0,.825.495q-.66.99-1.32.99.99.66-.33,2.64t-.33,2.97a3.18,3.18,0,0,1-1.32,1.65q-.99.66.33,2.31h-1.32a2.343,2.343,0,0,1,.33,1.98,5.171,5.171,0,0,1-.99,1.32q0,.66.99.66-.66,1.65-1.32,1.32,0-.33.99.66,0,.66-.495.495a.747.747,0,0,0-.825.165,5.4,5.4,0,0,1,.66,2.97q0,1.98-1.32,1.98a4.368,4.368,0,0,1,.66,2.475,2.232,2.232,0,0,1-1.32,2.145q.99.99.99,1.32a18.811,18.811,0,0,0,0,8.58q.99,4.62,1.65,8.91-.33,0-.33.66.33,0,.33-.66a11.871,11.871,0,0,0,1.485,1.815,3.361,3.361,0,0,1,.825,2.475,19,19,0,0,0,8.745-6.93,40.693,40.693,0,0,1,7.425-8.25,112.5,112.5,0,0,1,8.745-14.685A69.866,69.866,0,0,0,186.12-51.15q.33,0,.33-.165t.66-.165a160.432,160.432,0,0,1,13.53-23.76,13.151,13.151,0,0,1-1.815,3.96,14.023,14.023,0,0,0-1.815,3.63q.99.66.495,1.32a1.709,1.709,0,0,0-.165,1.65q-.99,1.65-1.98,3.135a9.094,9.094,0,0,0-1.32,3.8q-1.32.33-1.155.825t-.495,1.155q.99,0,1.65-1.98a2.526,2.526,0,0,0,1.155-1.815,8.176,8.176,0,0,1,.825-2.475q.66-.33.825-.165t.825-.165q0-.66-.33-.825t0-.825q.66,0,.66.33t.66-.33q-.66-.99.165-1.485t.165-1.155q.66-.66.66.165t.33.825a2.417,2.417,0,0,0,1.485-1.815,5.132,5.132,0,0,1,.825-2.145q-1.32-.33-1.155.66t-.825.99a4.692,4.692,0,0,1,.66-2.64,13.113,13.113,0,0,1,1.65-1.98q.66.33.165.825a.915.915,0,0,0-.165,1.155,1.54,1.54,0,0,0,1.155-1.155,1.016,1.016,0,0,1,1.155-.825q-1.32,2.31-2.8,4.62a8.99,8.99,0,0,0-1.485,4.95q.33,0,.33-.99.66,0,.495.5t.495.495q.33.99-.33,1.155t-.33,1.485a1.809,1.809,0,0,0,1.815-1.155q.5-1.155,1.815-.495a2.569,2.569,0,0,0-.99,2.31q0,1.65-1.98.66-.33.66,1.32.66-.33.66-.495.33t-.825.33q-.33.99.33,1.155t.33,1.155a3.818,3.818,0,0,1-.825-.495q-.165-.165-.825.495h0a3.656,3.656,0,0,0,.165,1.155q.165.5-.495-.165a2.126,2.126,0,0,0,1.32.99q.99.33-.33,1.32,1.65,0,1.155-1.32t1.155-1.65a11.086,11.086,0,0,1-2.31,4.95q1.65,0,1.65-1.485a1.753,1.753,0,0,1,1.65-1.815q-1.65,3.3-3.3,6.27l-3.3,5.94a1.111,1.111,0,0,0,.99-.5,8,8,0,0,1,.99-1.155.292.292,0,0,1,.33.33q0,.33.165.33t.165.66q-.66-.66-1.65.99a.672.672,0,0,1-.495-.165.672.672,0,0,0-.5-.165,1.33,1.33,0,0,0-.66,1.32,1.33,1.33,0,0,1-.66,1.32,1.284,1.284,0,0,0,1.32-.825,4.4,4.4,0,0,1,.99-1.485,47.06,47.06,0,0,1-3.63,8.085q-2.31,4.125-4.62,7.425a.583.583,0,0,0,.66.66,2.586,2.586,0,0,1-.66.495,2.585,2.585,0,0,0-.66.5,16.545,16.545,0,0,1-4.29,8.085,22.6,22.6,0,0,0-4.95,8.085.529.529,0,0,1-.5-.33.529.529,0,0,0-.5-.33,2.158,2.158,0,0,1-.99.99q-.66.33-.33,1.65-1.98,0-1.815,1.32T175.56-2.31a.583.583,0,0,0,.66.66A5.367,5.367,0,0,0,173.25.165,10.711,10.711,0,0,0,171.27,3.3a1.5,1.5,0,0,0-2.145-.165A7.1,7.1,0,0,0,167.31,4.95a17.183,17.183,0,0,1-9.4,3.135,27.7,27.7,0,0,1-10.23-1.65,43.985,43.985,0,0,1-9.4-4.62,45.258,45.258,0,0,1-7.26-5.775q0-.99.33-.99a7.261,7.261,0,0,1-3.63-5.445,43.491,43.491,0,0,0-1.98-7.425,69.339,69.339,0,0,1,2.145-23.43A215.874,215.874,0,0,1,135.3-64.68a2.51,2.51,0,0,0,1.32-2.805,2.51,2.51,0,0,1,1.32-2.805,1.171,1.171,0,0,1-.165-.99q.165-.33-.495-1.32a28.341,28.341,0,0,0,5.28-9.075q1.65-4.785,3.63-9.405-3.63,1.65-7.1,3.135t-8.085-.165q-2.64-1.65-5.28-3.465a58.671,58.671,0,0,1-4.95-3.795q0-.33.165-.33t.165-.33a12.109,12.109,0,0,1-2.31-11.22q1.65-6.27,2.64-10.89a1.911,1.911,0,0,0,1.32-.33,6.678,6.678,0,0,1,.33-3.465,6.926,6.926,0,0,1,2.31-3.465,3.437,3.437,0,0,1-.33-1.98,5.663,5.663,0,0,0,1.65-1.65q.99-1.32,0-1.65a2.7,2.7,0,0,1,1.65-.99,2.483,2.483,0,0,1,0-2.475q.66-1.155,1.32-2.145a13.3,13.3,0,0,0,1.155-2.145,4.709,4.709,0,0,0,.165-2.8q2.64-3.96,6.27-3.3t7.92,1.32Zm54.12,77.88q-.33,1.65,0,.33T199.32-65.01Zm.33,2.97h-.33a1.6,1.6,0,0,1-.33.825q-.33.495.33.495a1.911,1.911,0,0,0,.33-1.32q.66,0,.165-.495T199.65-62.04Zm-.33,2.97q-.66,0-.66.33Q199.32-58.74,199.32-59.07Zm-1.98,2.31Zm0,.99Zm-1.65.66q.33.99.33,0T195.69-55.11Zm2.97-.33q-.66,0-.66.33Q198.66-55.11,198.66-55.44Zm-1.65,2.64q.66.33.99-.825t-.33-.825q.33.66-.33.825T197.01-52.8Zm1.65-.33q.66.99.495.165T198.66-53.13Zm1.32.99q1.32,0,1.32-.99-.33,0-.33-.165t-.66-.165q0,.66-.165.66T199.98-52.14Zm-6.6,2.97Zm6.27,1.32h-.99a4.053,4.053,0,0,1-.33,1.485,1.28,1.28,0,0,0,.33,1.485.762.762,0,0,1-.495.825q-.5.165-.165.825.99.33.825-.66t.825-.66q0-.66-.165-.66t-.165-.33a5.783,5.783,0,0,0,2.64-3.63A3.621,3.621,0,0,0,199.65-47.85Zm-1.98.99a1.305,1.305,0,0,1,.165-.825q.165-.165-.5-.5Q197.34-46.86,197.67-46.86Zm-4.29.99a.762.762,0,0,0,.825-.495,9.052,9.052,0,0,1,.5-1.155q-.99-.33-.99.495A1.61,1.61,0,0,1,193.38-45.87Zm0,1.32q-.66,0-.66.33Q193.38-44.22,193.38-44.55Zm-3.3,1.65q-.33,1.65,0,.33T190.08-42.9Zm6.6.99q.99,0,.99-.66Q196.68-42.57,196.68-41.91Zm-.33,1.32q-.33,1.65,0,.33T196.35-40.59Zm-46.2,0q-.66,0-.66.33Q150.15-40.26,150.15-40.59Zm44.22,1.65q.33,0,.33.165t.33.165q0-.99-.66-.99Zm1.65-.33q-.66,0-.66.33Q196.02-38.94,196.02-39.27Zm-1.65,3.63a2.052,2.052,0,0,0,.66-1.485,1.182,1.182,0,0,1,.66-1.155h-.99a1.134,1.134,0,0,1-.5,1.485Q193.38-36.3,194.37-35.64Zm1.65-.99q-.66,0-.165.495t.165-.495q.99,0,.99-.33a.292.292,0,0,1-.33-.33.292.292,0,0,0-.33-.33A1.345,1.345,0,0,0,196.02-36.63Zm-7.92,3.96Zm2.97.66h.99q0-.66-.99-.66Zm-6.93.33Zm3.3,0q-.33,1.65.33.825T187.44-31.68Zm-39.27,7.26q0-.99-.66-.99Q147.51-24.09,148.17-24.42Zm40.59.66a.292.292,0,0,0-.33-.33.292.292,0,0,0-.33.33.529.529,0,0,1,.495.33Q188.76-23.1,188.76-23.76Zm13.86-55.11q.66.33.33.495a.529.529,0,0,0-.33.5q-.66-.33-.33-.5A.529.529,0,0,0,202.62-78.87Zm-.99,1.98q.33-.99.33,0T201.63-76.89Zm-40.59,2.64Zm42.9,0Zm0,0q.66,0,.165.495T203.94-74.25Zm-.99,5.61h.99q-.99.99-.99,1.32-.66-.33-.165-.495T202.95-68.64ZM135.3-64.68Zm62.04,0q.66-.66.66.165T197.34-64.68Zm4.62.66q0-.33.66-.33Q202.62-64.02,201.96-64.02Zm2.64,5.61q1.32.33.495,1.32t-1.155,1.32q-.99-.99.165-1.155T204.6-58.41Zm-4.95,10.56q1.65,0,.33.66Q199.65-47.19,199.65-47.85Zm1.65,3.3q.99,0,.5.99t-1.155.33q0-.33.66-.33ZM167.31,4.95a.292.292,0,0,1,.33.33Q167.64,5.61,167.31,4.95Z" transform="translate(364.379 276.256)" fill="#323232"/>
    <path id="Path_5634" data-name="Path 5634" d="M13.757-16.5v1.965H8.2V0H5.93V-14.532H.371V-16.5Zm5.9,0H21.91v6.817h8.58V-16.5h2.257V0H30.49V-7.715H21.91V0H19.652Zm20.562,0H52.242v2.021H42.393v5.009H51.5v1.909H42.393v5.593H52.411V0h-12.2ZM75.521-9.523a5.013,5.013,0,0,0,2.2-.393,2.264,2.264,0,0,0,1.235-2.224,2.143,2.143,0,0,0-1.314-2.179,5.906,5.906,0,0,0-2.2-.314H71.456v5.11Zm.752,7.614A3.4,3.4,0,0,0,79.2-3.1a3,3,0,0,0,.55-1.819,2.421,2.421,0,0,0-1.606-2.448,6.079,6.079,0,0,0-2.257-.348H71.456v5.806ZM69.266-16.5h7.086a4.7,4.7,0,0,1,4.122,1.729,4,4,0,0,1,.719,2.358,3.713,3.713,0,0,1-.887,2.561,4.336,4.336,0,0,1-1.325.966,5.606,5.606,0,0,1,1.9,1.089A3.953,3.953,0,0,1,81.99-4.818a4.6,4.6,0,0,1-1,2.886A5.629,5.629,0,0,1,76.24,0H69.266Zm19.405,0H100.7v2.021H90.85v5.009h9.108v1.909H90.85v5.593h10.018V0h-12.2Zm26.054-.427a8.475,8.475,0,0,1,4.021.9,5.862,5.862,0,0,1,3.01,4.526h-2.212a4.018,4.018,0,0,0-1.673-2.634,5.76,5.76,0,0,0-3.2-.825,5.016,5.016,0,0,0-3.858,1.718,7.374,7.374,0,0,0-1.567,5.121,8.183,8.183,0,0,0,1.292,4.79,4.775,4.775,0,0,0,4.211,1.847,5.377,5.377,0,0,0,3.7-1.3,5.43,5.43,0,0,0,1.5-4.195h-5.166V-8.827h7.244V0h-1.437l-.539-2.123a8.473,8.473,0,0,1-2.01,1.729,7.535,7.535,0,0,1-3.74.831,7.286,7.286,0,0,1-5.042-1.9A9.007,9.007,0,0,1,106.954-8a9.373,9.373,0,0,1,2.246-6.592A7.14,7.14,0,0,1,114.725-16.924Zm15.059.427h2.257V0h-2.257Zm9.68,0H142.1l8.333,13.364V-16.5h2.123V0h-2.5L141.6-13.353V0h-2.134Zm20.4,0h2.639l8.333,13.364V-16.5h2.123V0h-2.5L162-13.353V0h-2.134Zm20.91,0h2.257V0h-2.257Zm9.68,0H193.1l8.333,13.364V-16.5h2.123V0h-2.5l-8.457-13.353V0h-2.134ZM218-16.924a8.475,8.475,0,0,1,4.021.9,5.862,5.862,0,0,1,3.01,4.526h-2.212a4.018,4.018,0,0,0-1.673-2.634,5.759,5.759,0,0,0-3.2-.825,5.016,5.016,0,0,0-3.858,1.718,7.374,7.374,0,0,0-1.567,5.121,8.183,8.183,0,0,0,1.292,4.79,4.775,4.775,0,0,0,4.211,1.847,5.377,5.377,0,0,0,3.7-1.3,5.43,5.43,0,0,0,1.5-4.195h-5.166V-8.827h7.244V0h-1.437l-.539-2.123a8.473,8.473,0,0,1-2.01,1.729,7.535,7.535,0,0,1-3.74.831,7.286,7.286,0,0,1-5.042-1.9A9.007,9.007,0,0,1,210.224-8a9.373,9.373,0,0,1,2.246-6.592A7.14,7.14,0,0,1,218-16.924Zm31.859-.022q4.369,0,6.469,2.808a9.1,9.1,0,0,1,1.64,5.6,9.807,9.807,0,0,1-1.875,6.143A7.438,7.438,0,0,1,249.809.483a7.5,7.5,0,0,1-5.986-2.516,9.5,9.5,0,0,1-1.943-6.132,9.753,9.753,0,0,1,1.662-5.728A7.2,7.2,0,0,1,249.854-16.947Zm.225,15.431a4.653,4.653,0,0,0,4.273-2.117,9.011,9.011,0,0,0,1.32-4.868,6.944,6.944,0,0,0-1.522-4.683,5.194,5.194,0,0,0-4.161-1.774,5.418,5.418,0,0,0-4.178,1.758,7.408,7.408,0,0,0-1.617,5.183A7.572,7.572,0,0,0,245.581-3.4,5.216,5.216,0,0,0,250.079-1.516ZM264.633-16.5h11.444v2.021h-9.209v5.009h8.1V-7.5h-8.1V0h-2.235Zm28.029,0H304.69v2.021h-9.849v5.009h9.108v1.909h-9.108v5.593h10.018V0h-12.2Zm20.225,0,4.739,14.049L322.31-16.5h2.5L318.794,0h-2.37l-6.008-16.5Zm18.046,0h12.028v2.021h-9.849v5.009h9.108v1.909h-9.108v5.593H343.13V0h-12.2Zm26.593,7.558a4.331,4.331,0,0,0,2.488-.629,2.56,2.56,0,0,0,.915-2.269,2.434,2.434,0,0,0-1.28-2.4,4.184,4.184,0,0,0-1.831-.337h-5.458v5.638Zm-7.4-7.558h7.637a7.616,7.616,0,0,1,3.111.55,3.9,3.9,0,0,1,2.325,3.9,4.382,4.382,0,0,1-.612,2.426,4.423,4.423,0,0,1-1.713,1.516,3.375,3.375,0,0,1,1.454,1.033A3.711,3.711,0,0,1,362.872-5l.079,2.212a6.8,6.8,0,0,0,.157,1.4,1.38,1.38,0,0,0,.719,1.011V0h-2.74a2.061,2.061,0,0,1-.18-.55,10.56,10.56,0,0,1-.112-1.3L360.66-4.6a2.312,2.312,0,0,0-1.2-2.167,4.97,4.97,0,0,0-2.01-.3h-5.087V0h-2.235Zm18.451,0h2.605l4.739,7.929L380.66-16.5h2.617l-6.233,9.849V0h-2.235V-6.648ZM401-16.5v1.965h-5.559V0H393.17V-14.532h-5.559V-16.5Zm5.9,0h2.257v6.817h8.58V-16.5h2.257V0H417.73V-7.715h-8.58V0h-2.257Zm20.854,0H430V0h-2.257Zm9.68,0h2.639L448.4-3.133V-16.5h2.123V0h-2.5l-8.457-13.353V0h-2.134Zm27.536-.427a8.475,8.475,0,0,1,4.021.9,5.861,5.861,0,0,1,3.01,4.526h-2.212a4.018,4.018,0,0,0-1.673-2.634,5.76,5.76,0,0,0-3.2-.825,5.016,5.016,0,0,0-3.858,1.718,7.374,7.374,0,0,0-1.567,5.121,8.183,8.183,0,0,0,1.292,4.79,4.775,4.775,0,0,0,4.211,1.847,5.377,5.377,0,0,0,3.7-1.3,5.43,5.43,0,0,0,1.5-4.195h-5.166V-8.827h7.244V0h-1.437l-.539-2.123a8.473,8.473,0,0,1-2.01,1.729,7.535,7.535,0,0,1-3.74.831,7.286,7.286,0,0,1-5.042-1.9A9.007,9.007,0,0,1,457.192-8a9.373,9.373,0,0,1,2.246-6.592A7.14,7.14,0,0,1,464.963-16.924Z" transform="translate(373.379 430.256)" fill="#0a0a0a"/>
    <path id="Path_5635" data-name="Path 5635" d="M-71.373-14.346h1.963V0h-1.963Zm18.317,0v1.709h-4.834V0h-1.973V-12.637H-64.7v-1.709Zm6.315,0L-47.064-8.6H-48.2l-.322-5.742Zm6.071,9.717A3.92,3.92,0,0,0-40.1-2.646a3.819,3.819,0,0,0,3.408,1.426,6.033,6.033,0,0,0,1.992-.312A2.214,2.214,0,0,0-32.957-3.7a1.872,1.872,0,0,0-.732-1.67,7.4,7.4,0,0,0-2.324-.85l-1.943-.439a8.8,8.8,0,0,1-2.7-.947,3,3,0,0,1-1.367-2.686,4.135,4.135,0,0,1,1.338-3.174,5.368,5.368,0,0,1,3.789-1.24,6.581,6.581,0,0,1,3.833,1.089,3.93,3.93,0,0,1,1.577,3.481h-1.826a3.6,3.6,0,0,0-.625-1.768,3.631,3.631,0,0,0-3.018-1.123,3.491,3.491,0,0,0-2.471.723,2.262,2.262,0,0,0-.752,1.68,1.64,1.64,0,0,0,.879,1.543,12.9,12.9,0,0,0,2.607.781l2.012.459a6.164,6.164,0,0,1,2.246.908,3.4,3.4,0,0,1,1.367,2.92A3.645,3.645,0,0,1-32.8-.605,7.763,7.763,0,0,1-36.824.42,6.024,6.024,0,0,1-41.013-.947,4.613,4.613,0,0,1-42.5-4.629Zm29.416-1.25-2.178-6.338-2.314,6.338Zm-3.193-8.467h2.2L-7.046,0H-9.175L-10.63-4.3H-16.3L-17.856,0h-1.992Zm11.93,0H-.575V-1.709H6.691V0H-2.518Zm13.356,0,2.705,11.67,3.242-11.67h2.109l3.242,11.67,2.705-11.67H26.97L23.2,0H21.16L17.849-11.895,14.519,0H12.478L8.728-14.346ZM38.158-5.879,35.98-12.217,33.666-5.879Zm-3.193-8.467h2.2L42.367,0H40.238L38.783-4.3H33.109L31.556,0H29.564Zm9.342,0h2.266l4.121,6.895,4.121-6.895H57.09L51.67-5.781V0H49.727V-5.781ZM62.789-4.629a3.92,3.92,0,0,0,.576,1.982,3.819,3.819,0,0,0,3.408,1.426,6.033,6.033,0,0,0,1.992-.312A2.214,2.214,0,0,0,70.5-3.7a1.872,1.872,0,0,0-.732-1.67,7.4,7.4,0,0,0-2.324-.85L65.5-6.66a8.8,8.8,0,0,1-2.7-.947,3,3,0,0,1-1.367-2.686,4.135,4.135,0,0,1,1.338-3.174,5.368,5.368,0,0,1,3.789-1.24A6.581,6.581,0,0,1,70.4-13.618a3.93,3.93,0,0,1,1.577,3.481H70.153a3.6,3.6,0,0,0-.625-1.768,3.631,3.631,0,0,0-3.018-1.123,3.491,3.491,0,0,0-2.471.723,2.262,2.262,0,0,0-.752,1.68,1.64,1.64,0,0,0,.879,1.543,12.9,12.9,0,0,0,2.607.781l2.012.459a6.164,6.164,0,0,1,2.246.908A3.4,3.4,0,0,1,72.4-4.014,3.645,3.645,0,0,1,70.665-.605,7.763,7.763,0,0,1,66.637.42,6.024,6.024,0,0,1,62.447-.947a4.613,4.613,0,0,1-1.484-3.682Z" transform="translate(73.379 217.256)" fill="#0f0f0f"/>
    <g id="Group_4062" data-name="Group 4062" transform="translate(609.578 170.403)">
      <g id="Group_20" data-name="Group 20" transform="translate(0 0)">
        <g id="Group_19" data-name="Group 19">
          <path id="Path_37" data-name="Path 37" d="M73.343,84.716c-2.212,0-4.425-.014-6.639.009-.726.008-.9-.278-.726-1.331a8.853,8.853,0,0,0,0-2.7c-.145-.974-.037-1.259.645-1.256,2.793.02,5.591-.1,8.376.052,1.5.08,3.045-2.317,2.158-3.726-1.486-2.36-2.811-4.821-4.235-7.223-.377-.634-.2-.888.634-1.248a15.228,15.228,0,0,0,2.661-1.526c.6-.419.9-.51,1.233.066,2.211,3.88,4.482,7.727,6.638,11.638a3.831,3.831,0,0,1,.234,2.241,6.047,6.047,0,0,1-3.5,4.806,2,2,0,0,1-.856.19c-2.206.02-4.414.009-6.621.009" transform="translate(2.157 -8.959)" fill="#0a0a0a" fill-rule="evenodd"/>
          <path id="Path_38" data-name="Path 38" d="M18.083,84.719c-1.935,0-3.873-.08-5.8.024a4.383,4.383,0,0,1-3.722-1.791,6,6,0,0,1-1.513-3.971,6.378,6.378,0,0,1,.034-.675,2.43,2.43,0,0,1,.305-.966Q10.625,71.66,13.9,66c.421-.731.424-.732,1.174-.305,1.064.606,2.117,1.23,3.193,1.816.469.254.516.508.249.964-1.433,2.446-2.782,4.942-4.274,7.351-.791,1.278.59,3.728,2.12,3.658,2.788-.127,5.585-.021,8.378-.047.619,0,.8.192.766.855a26.2,26.2,0,0,0-.006,3.591c.051.644-.154.848-.713.843-2.235-.016-4.469-.007-6.7-.007" transform="translate(-7.048 -8.962)" fill="#0a0a0a" fill-rule="evenodd"/>
          <path id="Path_39" data-name="Path 39" d="M45.982,16.595a6.181,6.181,0,0,1,5.206,3.062c1.717,2.975,3.424,5.956,5.159,8.921.34.582.258.856-.582,1.2A11.651,11.651,0,0,0,53.1,31.3c-.675.524-.976.509-1.294-.052-1.374-2.43-2.846-4.807-4.139-7.277a2.082,2.082,0,0,0-3.538.016c-1.275,2.456-2.743,4.81-4.105,7.223-.319.564-.6.65-1.329.084a10.287,10.287,0,0,0-2.678-1.552c-.735-.276-.918-.523-.634-1.015,1.843-3.174,3.607-6.4,5.538-9.519a5.915,5.915,0,0,1,5.058-2.616" transform="translate(-2.637 -16.595)" fill="#0a0a0a" fill-rule="evenodd"/>
          <rect id="Rectangle_13" data-name="Rectangle 13" width="18.288" height="5.379" transform="translate(33.481 44.154)" fill="#0a0a0a"/>
          <rect id="Rectangle_14" data-name="Rectangle 14" width="5.379" height="18.288" transform="translate(39.935 37.699)" fill="#0a0a0a"/>
        </g>
      </g>
    </g>
  </g>
</svg>
